<svg t="1692600846806" class="icon" viewBox="0 0 1024 1024" version="1.1" xmlns="http://www.w3.org/2000/svg" p-id="4278" width="24" height="24"><path d="M819.2 64A76.8 76.8 0 0 1 896 140.8v102.4A76.8 76.8 0 0 1 819.2 320H294.336v198.4H448V512a64 64 0 0 1 64-64h384a64 64 0 0 1 64 64v76.8a64 64 0 0 1-64 64H512a64 64 0 0 1-63.68-57.6H294.336l0.064 204.8a25.6 25.6 0 0 0 20.48 25.088L320 825.6h128v-6.4a64 64 0 0 1 64-64h384a64 64 0 0 1 64 64V896a64 64 0 0 1-64 64H512a64 64 0 0 1-63.68-57.6H320a102.4 102.4 0 0 1-101.952-93.056L217.6 800 217.536 320H140.8A76.8 76.8 0 0 1 64 243.2V140.8A76.8 76.8 0 0 1 140.8 64h678.4z m64 768H524.8v51.2h358.4V832z m0-307.2H524.8V576h358.4v-51.2z m-64-384H140.8v102.4h678.4V140.8z" p-id="4279" fill="#555555"></path></svg>