<?xml version="1.0" standalone="no"?><!DOCTYPE svg PUBLIC "-//W3C//DTD SVG 1.1//EN" "http://www.w3.org/Graphics/SVG/1.1/DTD/svg11.dtd"><svg t="1638944566989" class="icon" viewBox="0 0 1024 1024" version="1.1" xmlns="http://www.w3.org/2000/svg" p-id="8209" xmlns:xlink="http://www.w3.org/1999/xlink" width="200" height="200"><defs><style type="text/css"></style></defs><path d="M881.1 745.2H144.9c-41.7 0-75.6-33.9-75.6-75.6V354c0-41.7 33.9-75.6 75.6-75.6h736.3c41.7 0 75.6 33.9 75.6 75.6v315.6c-0.1 41.7-34 75.6-75.7 75.6zM144.9 324.4c-16.3 0-29.6 13.3-29.6 29.6v315.6c0 16.3 13.3 29.6 29.6 29.6h736.3c16.3 0 29.6-13.3 29.6-29.6V354c0-16.3-13.3-29.6-29.6-29.6H144.9z" fill="#7D7D7D" p-id="8210"></path><path d="M925.7 722.2H657.6V301.4h268.1c4.4 0 8 3.6 8 8v404.7c0 4.5-3.5 8.1-8 8.1z" fill="#CBCBCB" p-id="8211"></path><path d="M881.1 745.2H634.6V278.4h246.5c41.7 0 75.6 33.9 75.6 75.6v315.6c0 41.7-33.9 75.6-75.6 75.6z m-200.5-46h200.5c16.3 0 29.6-13.3 29.6-29.6V354c0-16.3-13.3-29.6-29.6-29.6H680.6v374.8z" fill="#7D7D7D" p-id="8212"></path><path d="M796.4 565.6l64.3-102.9c0.3-0.5 0-1.2-0.7-1.2H731.4c-0.6 0-1 0.7-0.7 1.2L795 565.6c0.3 0.5 1 0.5 1.4 0z" fill="#7D7D7D" p-id="8213"></path></svg>