<svg t="1682595793489" class="icon" viewBox="0 0 1293 1024" version="1.1" xmlns="http://www.w3.org/2000/svg" p-id="5032" width="200" height="200"><path d="M0 0m10.778947 0l948.547369 0q10.778947 0 10.778947 10.778947l0 247.91579q0 10.778947-10.778947 10.778947l-948.547369 0q-10.778947 0-10.778947-10.778947l0-247.91579q0-10.778947 10.778947-10.778947Z" fill="#555555" p-id="5033" data-spm-anchor-id="a313x.7781069.0.i3" class=""></path><path d="M0 377.263158m10.778947 0l948.547369 0q10.778947 0 10.778947 10.778947l0 247.91579q0 10.778947-10.778947 10.778947l-948.547369 0q-10.778947 0-10.778947-10.778947l0-247.91579q0-10.778947 10.778947-10.778947Z" fill="#555555" p-id="5034"></path><path d="M1282.694737 754.526316c5.928421 0 10.778947 4.850526 10.778947 10.778947v247.91579a10.778947 10.778947 0 0 1-10.778947 10.778947H10.778947a10.778947 10.778947 0 0 1-10.778947-10.778947v-247.91579c0-5.928421 4.850526-10.778947 10.778947-10.778947h1271.91579zM700.631579 808.421053h-53.894737v53.894736h-53.894737v53.894737h53.894737v53.894737h53.894737v-53.894737h53.894737v-53.894737h-53.894737v-53.894736zM1158.736842 0a134.736842 134.736842 0 1 1 0 269.473684 134.736842 134.736842 0 0 1 0-269.473684zM1239.578947 107.789474h-161.68421v53.894737h161.68421V107.789474zM1158.736842 377.263158a134.736842 134.736842 0 1 1 0 269.473684 134.736842 134.736842 0 0 1 0-269.473684zM1239.578947 485.052632h-161.68421v53.894736h161.68421V485.052632z" fill="#555555" p-id="5035" data-spm-anchor-id="a313x.7781069.0.i4" class="selected"></path></svg>