<?xml version="1.0" standalone="no"?><!DOCTYPE svg PUBLIC "-//W3C//DTD SVG 1.1//EN" "http://www.w3.org/Graphics/SVG/1.1/DTD/svg11.dtd"><svg t="1668754103589" class="icon" viewBox="0 0 1024 1024" version="1.1" xmlns="http://www.w3.org/2000/svg" p-id="6488" xmlns:xlink="http://www.w3.org/1999/xlink" width="200" height="200"><path d="M984.953813 695.132116c25.897471-57.794356 38.996192-119.388341 38.996192-183.082121 0-64.293721-13.298701-126.287667-39.596133-184.481984-22.897764-50.595059-54.394688-95.790645-93.890831-134.686847 2.399766-10.898936 3.599648-22.197832 3.599648-33.89669 0-87.791427-71.193048-158.984474-158.984474-158.984474-52.694854 0-99.290304 25.5975-128.287472 64.993653-10.199004-0.699932-20.497998-0.999902-30.697002-0.999902-51.294991 0-101.690069 8.59916-149.685382 25.5975-46.395469 16.398399-89.491261 40.296065-128.187482 70.993067-38.29626 30.397032-71.293038 66.493506-97.89044 107.489503C176.632751 304.270286 158.634508 343.366468 146.4357 384.562445 64.543697 390.96182 0.049995 459.455131 0.049995 543.046968c0 87.791427 71.193048 158.984474 158.984474 158.984474 3.699639 0 7.399277-0.09999 10.998926-0.399961 33.7967 72.29294 86.091593 134.086906 152.385119 179.682453 74.792696 51.394981 162.484132 78.592325 253.575237 78.592325 10.698955 0 21.39791-0.399961 32.096866-1.099893 28.997168 38.39625 75.092667 63.193829 126.887609 63.193829 87.791427 0 158.984474-71.193048 158.984474-158.984474 0-11.098916-1.099893-21.797871-3.299678-32.296846C930.459135 791.622693 962.056049 746.027146 984.953813 695.132116zM734.978225 64.093741c52.394883 0 94.990724 42.59584 94.990724 94.990724s-42.59584 94.990724-94.990724 94.990724c-52.394883 0-94.990724-42.59584-94.990724-94.990724S682.583341 64.093741 734.978225 64.093741zM64.043746 543.046968c0-52.394883 42.59584-94.990724 94.990724-94.990724s94.990724 42.59584 94.990724 94.990724c0 52.394883-42.59584 94.990724-94.990724 94.990724S64.043746 595.441851 64.043746 543.046968zM734.978225 958.006445c-52.394883 0-94.990724-42.59584-94.990724-94.990724 0-52.394883 42.59584-94.990724 94.990724-94.990724 52.394883 0 94.990724 42.59584 94.990724 94.990724C830.068939 915.410604 787.373108 958.006445 734.978225 958.006445zM734.978225 704.031247c-87.791427 0-158.984474 71.193048-158.984474 158.984474 0 11.298897 1.199883 22.297822 3.399668 32.996778-1.099893 0-2.299775 0-3.399668 0-146.985646 0-278.572796-82.191973-343.366468-211.879309 50.79504-26.497412 85.491651-79.692218 85.491651-140.986232 0-69.693194-44.795625-128.887413-107.189532-150.385314C262.024412 235.576994 408.410116 128.087491 575.993751 128.087491c0.999902 0 1.999805 0 2.999707 0-1.999805 9.999024-2.999707 20.398008-2.999707 30.996973 0 87.791427 71.193048 158.984474 158.984474 158.984474 51.594961 0 97.490479-24.597598 126.587638-62.693878 62.893858 70.093155 98.390392 161.684211 98.390392 256.674934 0 94.490772-35.196563 185.781857-97.59047 255.775022C833.368616 729.028806 787.073137 704.031247 734.978225 704.031247z" p-id="6489"></path></svg>