<?xml version="1.0" standalone="no"?><!DOCTYPE svg PUBLIC "-//W3C//DTD SVG 1.1//EN" "http://www.w3.org/Graphics/SVG/1.1/DTD/svg11.dtd"><svg t="1636538442242" class="icon" viewBox="0 0 1024 1024" version="1.1" xmlns="http://www.w3.org/2000/svg" p-id="11926" xmlns:xlink="http://www.w3.org/1999/xlink" width="200" height="200"><defs><style type="text/css"></style></defs><path d="M640 582.4h166.4v76.8l147.2-121.6-147.2-121.6v76.8H640V256c0-38.4-25.6-64-64-64H249.6c-12.8-38.4-51.2-64-89.6-64C108.8 128 64 172.8 64 224S108.8 320 160 320c44.8 0 76.8-25.6 89.6-64H576v243.2H307.2c-19.2-32-44.8-51.2-83.2-51.2H64v192h160c38.4 0 70.4-25.6 89.6-57.6H576V832H256v-64H64v192h192v-64h320c38.4 0 64-25.6 64-64V582.4z" fill="#555555" p-id="11927"></path></svg>