<svg t="1667821292965" class="icon" viewBox="0 0 1196 1024" version="1.1" xmlns="http://www.w3.org/2000/svg" p-id="2210" data-spm-anchor-id="a313x.7781069.0.i11" width="200" height="200"><path d="M164.19270808 142.85937475h632.8125v738.2812505h-632.8125z" fill="#EEEEEE" p-id="2211" data-spm-anchor-id="a313x.7781069.0.i12" class=""></path><path d="M797.00520808 670.203125a26.36718725 26.36718725 0 0 0-26.36718725 26.36718725v158.203125h-580.07812475V302.72363256h580.07812475V327.42968775a26.36718725 26.36718725 0 1 0 52.73437525 0v-158.203125c0-29.08300807-23.62500025-52.73437525-52.73437525-52.73437525h-580.07812475c-29.08300807 0-52.73437525 23.65136719-52.73437525 52.73437525v685.5468745c0 29.109375 23.65136719 52.73437525 52.73437525 52.73437525h580.07812475a52.73437525 52.73437525 0 0 0 52.73437525-52.73437525v-158.203125a26.36718725 26.36718725 0 0 0-26.367188-26.36718725z m-26.36718725-500.97656225v80.76269532h-580.07812475V169.22656275h580.07812475z" fill="#555555" p-id="2212" data-spm-anchor-id="a313x.7781069.0.i8" class=""></path><path d="M643.17903671 485.63281275a26.36718725 26.36718725 0 1 0 0-52.73437525H589.36360651v-52.39160131a26.36718725 26.36718725 0 0 0-52.73437449 0V432.8984375h-104.36132863v-52.39160131a26.36718725 26.36718725 0 0 0-52.73437449 0V432.8984375h-54.26367188a26.36718725 26.36718725 0 0 0 0 52.73437525h54.26367188v80.18261668h-54.26367188a26.36718725 26.36718725 0 1 0 0 52.73437526h54.26367188V696.57031225h-54.26367188a26.36718725 26.36718725 0 1 0 0 52.73437525h54.26367188v28.582031a26.36718725 26.36718725 0 1 0 52.73437449 0V749.3046875h104.36132863v28.582031a26.36718725 26.36718725 0 1 0 52.73437449 0V749.3046875h53.8154302a26.36718725 26.36718725 0 1 0 0-52.73437525H589.36360651v-78.02050756h53.8154302a26.36718725 26.36718725 0 1 0 0-52.73437526H589.36360651V485.63281275h53.8154302z m-106.54980469 210.9374995h-104.36132863v-78.02050756h104.36132863V696.57031225z m0-130.75488282h-104.36132863V485.63281275h104.36132863v80.18261668zM1056.19466146 528.29492188a25.25976537 25.25976537 0 0 0 4.11328125-6.35449194c0.97558568-2.45214844 1.31835963-5.03613307 1.55566431-7.64648463 0.07910156-0.79101563 0.47460938-1.47656275 0.47460938-2.29394531v-0.07910156a25.97167943 25.97167943 0 0 0-7.72558619-18.58886719l-104.65136719-104.62500025a26.34082031 26.34082031 0 1 0-37.28320287 37.28320363L972.29427058 485.63281275h-198.94042969c-14.63378906 0-26.36718725 11.81249975-26.36718725 26.36718725s11.73339818 26.36718725 26.36718725 26.36718725h199.96875l-60.93457006 62.30566431a26.28808568 26.28808568 0 0 0 0.47460938 37.28320287 26.36718725 26.36718725 0 0 0 37.28320287-0.47460937l104.38769556-106.89257787 0.1054685-0.07910156 0.15820312-0.15820313c0.6328125-0.55371094 0.89648412-1.34472656 1.3974612-2.05664062z" fill="#555555" p-id="2213" data-spm-anchor-id="a313x.7781069.0.i9" class=""></path></svg>