<?xml version="1.0" standalone="no"?><!DOCTYPE svg PUBLIC "-//W3C//DTD SVG 1.1//EN" "http://www.w3.org/Graphics/SVG/1.1/DTD/svg11.dtd"><svg t="1628601534173" class="icon" viewBox="0 0 1024 1024" version="1.1" xmlns="http://www.w3.org/2000/svg" p-id="67362" xmlns:xlink="http://www.w3.org/1999/xlink" width="200" height="200"><defs><style type="text/css"></style></defs><path d="M438.26987305 124.25C315.86987304 146.3 210.11987305 219.2 158.81987304 317.75c-27.45 52.2-36.45 90-35.99999999 148.5 0.9 90.45 28.8 153.9 99 224.55l42.29999999 41.85 0.90000001 85.05 1.35 85.05 80.55-48.15 80.55-48.6h81.45c75.6-0.45 84.15-1.35 121.95-12.6 81.45-25.2 130.95-54.9 184.5-112.05 36.9-39.15 57.15-71.55 72.44999999-115.65 54.9-157.95-20.25-322.65-184.49999999-403.2-60.75-30.15-100.35-39.15-178.2-40.95-36-0.45-75.15 0.45-86.85000001 2.7z m170.09999999 60.3c14.85 4.05 45.9 16.65 69.30000001 27.9 34.65 17.1 49.5 27.9 79.2 57.6 62.1 61.65 84.6 113.85 84.6 193.95s-22.5 132.3-84.15000001 193.5c-40.5 40.05-83.7 65.7-142.19999999 83.7-28.35 9-43.65 10.8-94.5 10.8-33.3 0-67.05-1.35-75.15000001-3.15-12.15-2.7-21.15 0.9-69.74999999 30.15L320.36987304 812.75l-1.34999999-58.5-1.35-58.05-14.85-9.45c-21.6-13.05-67.95-63.45-83.70000001-91.35-25.2-44.1-33.75-76.5-33.74999999-131.4 0-51.75 5.85-76.5 27-119.25 40.5-80.55 126.45-143.1 227.25-164.25 37.35-8.1 131.4-5.85 168.74999999 4.05z" fill="#555555" p-id="67363"></path><path d="M297.86987305 416.3c-20.25 9-29.25 23.85-29.25 48.15 0 22.95 23.85 46.8 46.8 46.8 23.4 0 40.5-10.35 49.95-30.15 7.2-14.85 7.2-18.45 1.8-34.65-11.25-31.05-39.6-43.65-69.3-30.15zM476.96987305 428c-14.85 14.85-15.75 17.55-13.5 36.9 5.85 52.65 76.05 64.35 96.3 16.2 14.4-35.55-8.1-68.85-46.8-68.85-17.1 0-22.5 2.25-36 15.75zM679.91987305 420.35c-13.5 10.8-19.8 24.75-19.80000001 43.65 0 23.4 23.85 47.25 46.80000001 47.25 23.4 0 40.5-10.35 49.95-29.7 6.3-13.95 6.75-19.35 2.7-33.75-7.2-23.85-23.85-35.55-49.5-35.55-12.6 0-24.3 3.15-30.15 8.1z" fill="#555555" p-id="67364"></path></svg>