<svg xmlns="http://www.w3.org/2000/svg" xmlns:xlink="http://www.w3.org/1999/xlink" t="1628591094119" class="icon" viewBox="0 0 1024 1024" version="1.1" p-id="33392" width="200" height="200"><defs><style type="text/css"/></defs><path d="M896 896v64H128v-64h768z m0-192v64H128v-64h768zM480 128a32 32 0 0 1 32 32v64a32 32 0 0 1-64 0V192H352v320h64a32 32 0 0 1 0 64h-192a32 32 0 0 1 0-64h64V192H192v32a32 32 0 0 1-64 0v-64a32 32 0 0 1 32-32h320zM896 512v64h-256V512h256z m0-192v64h-256V320h256z m0-192v64h-256V128h256z" p-id="33393" fill="#555555"/></svg>