<?xml version="1.0" standalone="no"?><!DOCTYPE svg PUBLIC "-//W3C//DTD SVG 1.1//EN" "http://www.w3.org/Graphics/SVG/1.1/DTD/svg11.dtd"><svg t="1640678923322" class="icon" viewBox="0 0 1843 1024" version="1.1" xmlns="http://www.w3.org/2000/svg" p-id="28575" xmlns:xlink="http://www.w3.org/1999/xlink" width="359.9609375" height="200"><defs><style type="text/css"></style></defs><path d="M338.709444 405.441344v212.844605L216.937771 511.863646l121.771673-106.422302m36.326843-95.166098a14.837725 14.837725 0 0 0-9.721268 4.093166L153.493706 500.607441a14.326079 14.326079 0 0 0 0 22.512411l212.844605 186.239029a14.326079 14.326079 0 0 0 24.558993-11.256205V325.624617a14.837725 14.837725 0 0 0-14.837725-15.349371zM1501.168441 405.441344L1622.940114 511.863646l-121.771673 106.422303V405.441344m-36.326844-95.166098a14.837725 14.837725 0 0 0-14.837725 15.349371v372.478059a14.837725 14.837725 0 0 0 14.837725 15.34937 13.814434 13.814434 0 0 0 9.721268-4.093165L1688.430762 523.119852a15.349371 15.349371 0 0 0 0-22.512411l-213.356251-186.239029a13.814434 13.814434 0 0 0-9.721268-4.093166z" p-id="28576" fill="#555555"></path><path d="M242.520055 1023.509332A232.798787 232.798787 0 0 1 0 801.96675V221.760543A232.798787 232.798787 0 0 1 242.520055 0.217961h1356.884357A232.798787 232.798787 0 0 1 1841.924467 221.760543v580.206207A233.310433 233.310433 0 0 1 1593.77631 1023.509332z m0-966.4987a173.959533 173.959533 0 0 0-180.610927 164.749911v580.206207a173.959533 173.959533 0 0 0 180.610927 164.749911h1356.884357a173.447887 173.447887 0 0 0 180.099282-164.749911V221.760543a173.447887 173.447887 0 0 0-180.099282-164.749911z" p-id="28577" fill="#555555"></path><path d="M618.067988 511.863646m-102.329137 0a102.329137 102.329137 0 1 0 204.658274 0 102.329137 102.329137 0 1 0-204.658274 0Z" p-id="28578" fill="#555555"></path><path d="M930.171856 460.699078a51.164569 51.164569 0 1 1-51.164569 51.164568 51.164569 51.164569 0 0 1 51.164569-51.164568m0-51.164569a102.329137 102.329137 0 1 0 102.329137 102.329137 102.329137 102.329137 0 0 0-102.329137-102.329137zM1243.810661 460.699078a51.164569 51.164569 0 1 1-51.164568 51.164568 51.164569 51.164569 0 0 1 51.164568-51.164568m0-51.164569a102.329137 102.329137 0 1 0 102.329137 102.329137 102.329137 102.329137 0 0 0-102.329137-102.329137z" p-id="28579" fill="#555555"></path></svg>