<?xml version="1.0" standalone="no"?><!DOCTYPE svg PUBLIC "-//W3C//DTD SVG 1.1//EN" "http://www.w3.org/Graphics/SVG/1.1/DTD/svg11.dtd"><svg t="1628601460221" class="icon" viewBox="0 0 1024 1024" version="1.1" xmlns="http://www.w3.org/2000/svg" p-id="66507" xmlns:xlink="http://www.w3.org/1999/xlink" width="200" height="200"><defs><style type="text/css"></style></defs><path d="M653.13 309.7c20.79 0 37.64 16.85 37.64 37.64 0 19.19-14.36 35.02-32.92 37.34l-4.72 0.29H370.86c-20.79 0-37.64-16.85-37.64-37.64 0-19.19 14.36-35.02 32.92-37.34l4.72-0.29h282.27zM512.65 451.44c20.79 0 37.64 16.85 37.64 37.64 0 19.19-14.36 35.02-32.92 37.34l-4.72 0.29H371.52c-20.79 0-37.64-16.85-37.64-37.64 0-19.19 14.36-35.02 32.92-37.34l4.72-0.29h141.13z m0 141.14c20.79 0 37.64 16.85 37.64 37.64 0 19.19-14.36 35.02-32.92 37.34l-4.72 0.29H371.52c-20.79 0-37.64-16.85-37.64-37.64 0-19.19 14.36-35.02 32.92-37.34l4.72-0.29h141.13z m395.63 31.48c16.17 10.08 22.03 30.43 14.43 47.34l-2.41 4.52-131.18 210.3c-10.32 16.55-31.33 22.24-48.37 13.94l-4.54-2.61-104.05-69.85c-17.26-11.59-21.86-34.97-10.27-52.23 10.62-15.82 31.15-21 47.79-12.83l4.43 2.56 71.7 48.13 110.61-177.25c11.01-17.64 34.22-23.02 51.86-12.02zM794.27 98c70.06 0 127.34 54.69 131.49 123.7l0.24 8.02v255.52c0 20.79-16.85 37.64-37.64 37.64-19.19 0-35.02-14.36-37.34-32.92l-0.29-4.72V229.73c0-29.23-22.21-53.27-50.68-56.16l-5.77-0.29H229.73c-29.23 0-53.27 22.21-56.16 50.68l-0.29 5.77v564.55c0 29.23 22.21 53.27 50.68 56.16l5.77 0.29h320.06c20.79 0 37.64 16.85 37.64 37.64 0 19.19-14.36 35.02-32.92 37.34l-4.72 0.29H229.73c-70.06 0-127.34-54.69-131.49-123.7l-0.24-8.03V229.73c0-70.06 54.69-127.34 123.7-131.49l8.02-0.24h564.55z" p-id="66508" fill="#555555"></path></svg>