<svg t="1670402071683" class="icon" viewBox="0 0 1024 1024" version="1.1" xmlns="http://www.w3.org/2000/svg" p-id="6972" width="200" height="200"><path d="M213.333333 128a42.666667 42.666667 0 0 0-42.666666 42.666667v682.666666a42.666667 42.666667 0 0 0 42.666666 42.666667h597.333334a42.666667 42.666667 0 0 0 42.666666-42.666667V170.666667a42.666667 42.666667 0 0 0-42.666666-42.666667H213.333333m0-85.333333h597.333334a128 128 0 0 1 128 128v682.666666a128 128 0 0 1-128 128H213.333333a128 128 0 0 1-128-128V170.666667a128 128 0 0 1 128-128z" fill="#555555" p-id="6973"></path><path d="M682.666667 725.333333v-256h-170.666667v256h170.666667m0 85.333334h-170.666667a85.333333 85.333333 0 0 1-85.333333-85.333334v-256a85.333333 85.333333 0 0 1 85.333333-85.333333h170.666667a85.333333 85.333333 0 0 1 85.333333 85.333333v256a85.333333 85.333333 0 0 1-85.333333 85.333334z" fill="#555555" p-id="6974"></path><path d="M341.333333 810.666667m-42.666666 0l0 0q-42.666667 0-42.666667-42.666667l0-341.333333q0-42.666667 42.666667-42.666667l0 0q42.666667 0 42.666666 42.666667l0 341.333333q0 42.666667-42.666666 42.666667Z" fill="#555555" p-id="6975"></path><path d="M618.666667 192m64 0l0 0q64 0 64 64l0 0q0 64-64 64l0 0q-64 0-64-64l0 0q0-64 64-64Z" fill="#555555" p-id="6976"></path><path d="M256 213.333333m42.666667 0l213.333333 0q42.666667 0 42.666667 42.666667l0 0q0 42.666667-42.666667 42.666667l-213.333333 0q-42.666667 0-42.666667-42.666667l0 0q0-42.666667 42.666667-42.666667Z" fill="#555555" p-id="6977"></path></svg>