<?xml version="1.0" standalone="no"?><!DOCTYPE svg PUBLIC "-//W3C//DTD SVG 1.1//EN" "http://www.w3.org/Graphics/SVG/1.1/DTD/svg11.dtd"><svg t="1631527818086" class="icon" viewBox="0 0 1024 1024" version="1.1" xmlns="http://www.w3.org/2000/svg" p-id="2238" xmlns:xlink="http://www.w3.org/1999/xlink" width="200" height="200"><defs><style type="text/css"></style></defs><path d="M807.808 977.152H214.656c-75.264 0-136.448-55.296-136.448-123.203V205.056c0-67.84 61.184-123.136 136.448-123.136h92.928c21.565 0 39.04 15.805 39.04 35.395 0 19.645-17.475 35.394-39.04 35.394h-92.928c-32.061 0-58.112 23.552-58.112 52.48v648.96c0 28.867 26.045 52.414 58.112 52.414h593.157c32.123 0 58.112-23.552 58.112-52.48v-648.96c0-28.995-25.984-52.48-58.112-52.48h-92.866c-21.638 0-39.107-15.806-39.107-35.456 0-19.584 17.47-35.395 39.04-35.395h92.928c75.259 0 136.443 55.235 136.443 123.136v648.96c0.005 67.968-61.179 123.264-136.443 123.264z" p-id="2239" fill="#555555"></path><path d="M482.115 734.013a36.608 36.608 0 0 1-26.112-10.813L264.125 532.48a36.608 36.608 0 0 1-0.133-51.768l0.133-0.133a37.12 37.12 0 0 1 52.286 0L482.176 645.12l247.04-245.443a37.12 37.12 0 0 1 52.357 0 36.541 36.541 0 0 1 0.287 51.682l-0.287 0.286L508.416 723.2a37.622 37.622 0 0 1-26.24 10.813h-0.061z m34.688-613.309H505.6h11.203zM611.2 17.536H411.325c-58.24 0-105.472 46.976-105.472 104.77 0 57.857 47.232 104.833 105.472 104.833H611.2c58.24 0 105.472-46.976 105.472-104.832 0-57.795-47.299-104.771-105.472-104.771z m0 73.6a31.35 31.35 0 0 1 34.058 28.4A31.355 31.355 0 0 1 611.2 153.6H411.325a31.355 31.355 0 1 1 0-62.525H611.2v0.061z" p-id="2240" fill="#555555"></path></svg>