<?xml version="1.0" standalone="no"?><!DOCTYPE svg PUBLIC "-//W3C//DTD SVG 1.1//EN" "http://www.w3.org/Graphics/SVG/1.1/DTD/svg11.dtd"><svg t="1668087659059" class="icon" viewBox="0 0 1024 1024" version="1.1" xmlns="http://www.w3.org/2000/svg" p-id="31818" xmlns:xlink="http://www.w3.org/1999/xlink" width="200" height="200"><path d="M844.627485 0.00256a178.431009 178.431009 0 0 1 179.028339 189.32517l-13.596369 250.082167a124.585975 124.585975 0 0 1-36.892239 81.635102L525.596369 968.672734A186.281632 186.281632 0 0 1 393.159771 1023.996871a177.805234 177.805234 0 0 1-127.032183-52.337487L52.340331 757.900572a183.266537 183.266537 0 0 1 3.015095-259.468781L502.613385 50.519613A124.585975 124.585975 0 0 1 584.248488 13.627373L834.387542 0.00256h10.268388z m-215.010361 243.14176a151.209827 151.209827 0 1 0-0.654218 302.419654 151.209827 151.209827 0 0 0 0.654218-302.419654z" p-id="31819" data-spm-anchor-id="a313x.7781069.0.i6" class="selected" fill="#555555"></path></svg>