<?xml version="1.0" standalone="no"?><!DOCTYPE svg PUBLIC "-//W3C//DTD SVG 1.1//EN" "http://www.w3.org/Graphics/SVG/1.1/DTD/svg11.dtd"><svg t="1670406476971" class="icon" viewBox="0 0 1024 1024" version="1.1" xmlns="http://www.w3.org/2000/svg" p-id="18959" xmlns:xlink="http://www.w3.org/1999/xlink" width="200" height="200"><path d="M194.56 640h165.12l41.6 64H162.56l-32-32v-576l32-32h768l32 32v305.28l-64-112V128h-704v512z m354.56 64l-90.24 222.08h140.8L960 556.8 913.28 448h-104.32l52.48-93.44L808.32 256H624.64l-58.88 37.76-145.92 320L478.08 704h71.04z m75.52-384h183.68l-119.68 192h224.64l-368.64 373.76L652.8 640H478.08l146.56-320zM444.8 448H258.56V384H473.6l-28.8 64z m-57.6 128H258.56V512H416l-28.8 64z" p-id="18960" fill="#555555"></path></svg>