<?xml version="1.0" standalone="no"?><!DOCTYPE svg PUBLIC "-//W3C//DTD SVG 1.1//EN" "http://www.w3.org/Graphics/SVG/1.1/DTD/svg11.dtd"><svg t="1670318352118" class="icon" viewBox="0 0 1024 1024" version="1.1" xmlns="http://www.w3.org/2000/svg" p-id="2170" xmlns:xlink="http://www.w3.org/1999/xlink" width="200" height="200"><path d="M260.352 431.658667C163.669333 431.658667 85.333333 353.706667 85.333333 259.285333 85.333333 164.906667 163.669333 85.333333 260.352 85.333333c96.64 0 174.976 77.866667 174.976 173.994667 0 96.085333-80 172.288-174.976 172.288z m0-246.912c-41.685333 0-75.008 33.152-75.008 74.581333 0 41.386667 33.322667 74.538667 75.008 74.538667 41.642667 0 74.965333-33.109333 74.965333-74.538667 0-41.429333-34.986667-74.581333-74.965333-74.581333zM765.354667 933.717333c-96.682667 0-175.018667-77.909333-175.018667-173.994666 0-96.128 78.336-172.330667 174.976-172.330667 96.682667 0 175.018667 77.866667 175.018667 173.994667 0 96.085333-80 172.330667-175.018667 172.330666z m0-246.912c-41.685333 0-75.008 33.152-75.008 74.581334 0 41.386667 33.28 74.538667 75.008 74.538666 41.642667 0 74.965333-33.109333 74.965333-74.538666 0-41.429333-34.986667-74.581333-75.008-74.581334z" p-id="2171" fill="#555555"></path><path d="M260.352 938.666667a48.981333 48.981333 0 0 1-50.005333-49.706667V386.901333c0-28.16 21.674667-49.706667 50.005333-49.706666 28.330667 0 49.962667 21.546667 49.962667 49.706666v502.058667c0 26.496-23.296 49.706667-49.962667 49.706667z" p-id="2172" fill="#555555"></path><path d="M640.341333 811.093333c-331.690667 0-426.666667-280.021333-429.994666-427.52 0-28.16 21.674667-49.706667 48.341333-51.370666a51.2 51.2 0 0 1 51.626667 48.085333c0 13.226667 13.354667 329.728 331.690666 329.728 28.330667 0 50.005333 21.546667 50.005334 49.706667s-23.338667 51.370667-51.669334 51.370666z" p-id="2173" data-spm-anchor-id="a313x.7781069.0.i0" class="" fill="#555555"></path></svg>