<svg xmlns="http://www.w3.org/2000/svg" xmlns:xlink="http://www.w3.org/1999/xlink" t="1628599609506" class="icon" viewBox="0 0 1024 1024" version="1.1" p-id="18341" width="200" height="200"><defs><style type="text/css"/></defs><path d="M640 213.333333H384v42.666667a42.666667 42.666667 0 1 1-85.333333 0V213.333333H213.077333C166.144 213.333333 128 251.434667 128 298.368V384h768V298.368A85.418667 85.418667 0 0 0 810.922667 213.333333H725.333333v42.666667a42.666667 42.666667 0 0 1-85.333333 0V213.333333z m85.333333-85.333333h85.589334A170.752 170.752 0 0 1 981.333333 298.368v512.597333A170.453333 170.453333 0 0 1 810.922667 981.333333H213.077333A170.752 170.752 0 0 1 42.666667 810.965333V298.368A170.453333 170.453333 0 0 1 213.077333 128H298.666667v-42.026667a42.666667 42.666667 0 1 1 85.333333 0V128h256v-42.026667a42.666667 42.666667 0 0 1 85.333333 0V128z m170.666667 341.333333H128v341.632C128 857.6 166.314667 896 213.077333 896h597.845334c46.933333 0 85.077333-38.101333 85.077333-85.034667V469.333333z" p-id="18342" fill="#555555"/><path d="M341.333333 640h341.333334a42.666667 42.666667 0 0 0 0-85.333333H341.333333a42.666667 42.666667 0 0 0 0 85.333333zM341.333333 810.666667h341.333334a42.666667 42.666667 0 0 0 0-85.333334H341.333333a42.666667 42.666667 0 0 0 0 85.333334z" p-id="18343" fill="#555555"/></svg>
