<?xml version="1.0" standalone="no"?><!DOCTYPE svg PUBLIC "-//W3C//DTD SVG 1.1//EN" "http://www.w3.org/Graphics/SVG/1.1/DTD/svg11.dtd"><svg t="1663658830641" class="icon" viewBox="0 0 1024 1024" version="1.1" xmlns="http://www.w3.org/2000/svg" p-id="2451" xmlns:xlink="http://www.w3.org/1999/xlink" width="200" height="200"><path d="M914.56 1010.56H109.44a96 96 0 0 1-95.36-96V110.08A96 96 0 0 1 109.44 14.08h805.12a96 96 0 0 1 95.36 96v804.48a96 96 0 0 1-95.36 96zM109.44 78.08a32 32 0 0 0-31.36 32v804.48a32 32 0 0 0 31.36 32h805.12a32 32 0 0 0 31.36-32V110.08a32 32 0 0 0-31.36-32z" fill="#555555" p-id="2452"></path><path d="M287.36 238.08h448v71.68H553.6v476.8H471.04V309.76H287.36z" fill="#555555" p-id="2453"></path></svg>