<?xml version="1.0" standalone="no"?><!DOCTYPE svg PUBLIC "-//W3C//DTD SVG 1.1//EN" "http://www.w3.org/Graphics/SVG/1.1/DTD/svg11.dtd"><svg t="1669196934225" class="icon" viewBox="0 0 1024 1024" version="1.1" xmlns="http://www.w3.org/2000/svg" p-id="2454" xmlns:xlink="http://www.w3.org/1999/xlink" width="200" height="200"><path d="M505.737521 65.671405A442.09719 442.09719 0 1 0 950.881322 507.768595 444.195967 444.195967 0 0 0 505.737521 65.671405zM886.225455 507.768595A380.487934 380.487934 0 1 1 505.737521 129.98876 379.370843 379.370843 0 0 1 886.225455 507.768595z" p-id="2455"></path><path d="M720.015868 500.659835h-197.014215V304.661157a32.158678 32.158678 0 1 0-64.317355 0v212.924298a47.594843 47.594843 0 0 0 47.730247 47.391735h214.278348a32.158678 32.158678 0 0 0 32.158677-32.158678 32.734149 32.734149 0 0 0-32.835702-32.158677z m-200.399339 6.770248a16.045488 16.045488 0 0 0-3.385124-3.385124h3.385124z m-13.540496-5.077686z" p-id="2456"></path></svg>