<?xml version="1.0" standalone="no"?><!DOCTYPE svg PUBLIC "-//W3C//DTD SVG 1.1//EN" "http://www.w3.org/Graphics/SVG/1.1/DTD/svg11.dtd"><svg t="1628600122967" class="icon" viewBox="0 0 1024 1024" version="1.1" xmlns="http://www.w3.org/2000/svg" p-id="23397" xmlns:xlink="http://www.w3.org/1999/xlink" width="200" height="200"><defs><style type="text/css"></style></defs><path d="M831.8 64H192.2C121.1 64 64 121.1 64 192.2v639.5C64 902.3 121.1 960 192.2 960h639.5c70.6 0 128.2-57.1 128.2-128.2V192.2C960 121.1 902.9 64 831.8 64z m63.8 767.8c0 35.3-28.6 63.8-63.8 63.8H192.2c-35.3 0-63.8-28.6-63.8-63.8V192.2c-0.6-35.3 28-63.8 63.3-64.4h639.6c35.3 0 63.8 28.6 63.8 63.8v640.1h0.5zM543.9 256.1H288c-17.4 0-31.9 14.6-31.9 31.9s14.6 31.9 31.9 31.9h255.9c17.4 0 31.9-14.6 31.9-31.9 0-17.4-14-31.9-31.9-31.9z m-63.8 192.1H288c-17.4 0-31.9 14.6-31.9 31.9 0 17.4 14.6 31.9 31.9 31.9h192.1c17.4 0 31.9-14.6 31.9-31.9 0-17.9-14.6-31.9-31.9-31.9z m-63.9 192H288c-17.4 0-31.9 14.6-31.9 31.9S270.7 704 288 704h128.2c17.4 0 31.9-14.6 31.9-31.9s-13.9-31.9-31.9-31.9z m328.8-383c-16.8-5.6-34.2 3.9-39.2 20.7 0 0.6-0.6 1.1-0.6 1.1L577 727c-5 16.8 4.5 34.7 21.3 39.8h9.6c14.6 0 26.9-9.5 30.8-23l128.2-448c5-16.8-4.5-34.7-21.3-39.8h-0.6v1.2z" p-id="23398" fill="#555555"></path></svg>