<?xml version="1.0" standalone="no"?><!DOCTYPE svg PUBLIC "-//W3C//DTD SVG 1.1//EN" "http://www.w3.org/Graphics/SVG/1.1/DTD/svg11.dtd"><svg t="1628599512482" class="icon" viewBox="0 0 1024 1024" version="1.1" xmlns="http://www.w3.org/2000/svg" p-id="16786" xmlns:xlink="http://www.w3.org/1999/xlink" width="200" height="200"><defs><style type="text/css"></style></defs><path d="M754.773333 266.453333h39.424c32 0 59.136 27.008 59.136 58.88V794.453333c0 31.914667-27.093333 58.922667-59.136 58.922667H325.930667c-32 0-59.136-27.008-59.136-58.922667v-17.194666h-36.992C197.802667 777.216 170.666667 752.64 170.666667 723.2V227.157333C170.666667 195.242667 197.76 170.666667 229.802667 170.666667h465.792c32.042667 0 59.178667 24.576 59.178666 54.016v41.770666z m-49.322666 0v-41.770666c0-2.432-4.906667-4.906667-9.813334-4.906667H229.76c-7.381333 0-9.813333 2.474667-9.813333 4.906667V723.2c0 2.432 4.906667 4.906667 9.813333 4.906667h36.992v-402.773334c0-31.872 24.618667-58.88 59.136-58.88h379.52z m88.746666 540.202667c4.906667 0 9.813333-4.906667 9.813334-9.813333V327.808c0-4.906667-4.906667-9.813333-9.813334-9.813333H325.930667c-4.949333 0-9.856 4.906667-9.856 9.813333V794.453333c0 4.906667 4.906667 9.813333 9.856 9.813334h468.266666v2.432z m-392.021333-171.861333h221.824c14.805333 0 24.661333 9.813333 24.661333 24.533333s-9.856 24.576-24.661333 24.576H399.744c-14.805333 0-24.661333-9.813333-24.661333-24.576 0-14.72 12.330667-24.533333 27.093333-24.533333z m-2.304-130.602667h140.458667c14.805333 0 24.661333 9.813333 24.661333 24.533333 0 14.762667-9.856 24.576-24.661333 24.576H399.872c-14.805333 0-24.661333-9.813333-24.661333-24.576 0-14.72 9.856-24.533333 24.661333-24.533333z m329.984-86.698667a27.776 27.776 0 1 1 27.818667-27.733333c0 15.36-12.458667 27.733333-27.818667 27.733333z m-75.946667 0a27.776 27.776 0 1 1 27.818667-27.733333c0 15.36-12.458667 27.733333-27.818667 27.733333z m-75.946666 0a27.776 27.776 0 1 1 27.861333-27.733333c0 15.36-12.501333 27.733333-27.861333 27.733333z" fill="#555555" p-id="16787"></path></svg>