<?xml version="1.0" standalone="no"?><!DOCTYPE svg PUBLIC "-//W3C//DTD SVG 1.1//EN" "http://www.w3.org/Graphics/SVG/1.1/DTD/svg11.dtd"><svg t="1692604669745" class="icon" viewBox="0 0 1024 1024" version="1.1" xmlns="http://www.w3.org/2000/svg" p-id="1585" width="48" height="48"><path d="M1016.064 197.952c-0.384-70.528-56.256-126.912-128.576-127.424l-754.56 2.88c-34.24 0.192-66.304 13.632-90.432 37.888s-37.248 56.448-37.12 90.688l2.56 624.064a128.256 128.256 0 0 0 128.576 127.488l754.624-2.944a126.976 126.976 0 0 0 90.368-37.888 127.36 127.36 0 0 0 37.12-90.688l-2.56-624.064zM136 825.472l-2.56-624.064 754.624-2.944 2.688 624.064-754.752 2.944z" fill="#515151" p-id="1586"></path><path d="M511.232 320a64 64 0 0 0-63.744 64.256l1.024 256A64 64 0 0 0 511.36 704h1.408c35.328-0.192 63.872-28.928 63.744-64.256l-1.024-256c-0.064-35.328-28.032-62.08-64.256-63.744zM318.976 256.768a64 64 0 0 0-63.744 64.256l1.536 384a64 64 0 0 0 62.848 63.744h1.408c35.328-0.192 63.872-28.928 63.744-64.256l-1.536-384c-0.128-35.328-27.072-63.232-64.256-63.744zM702.976 255.232a64 64 0 0 0-63.744 64.256l1.536 384a64 64 0 0 0 62.848 63.744h1.408c35.328-0.192 63.872-28.928 63.744-64.256l-1.536-384c-0.128-35.328-28.608-62.016-64.256-63.744z" fill="#515151" p-id="1587"></path></svg>