<svg xmlns="http://www.w3.org/2000/svg" xmlns:xlink="http://www.w3.org/1999/xlink" t="1628600681597" class="icon" viewBox="0 0 1024 1024" version="1.1" p-id="36034" width="200" height="200"><defs><style type="text/css"/></defs><path d="M663.14666667 512c0-76.26666667-56.96-138.88-130.45333334-149.01333333v-28.26666667c73.49333333-10.24 130.45333333-72.74666667 130.45333334-149.01333333 0-83.30666667-67.84-151.14666667-151.14666667-151.14666667S360.85333333 102.29333333 360.85333333 185.6c0 76.26666667 56.96 138.88 130.45333334 149.01333333v28.26666667c-73.49333333 10.24-130.45333333 72.74666667-130.45333334 149.01333333s56.96 138.88 130.45333334 149.01333334v28.26666666c-73.49333333 10.24-130.45333333 72.74666667-130.45333334 149.01333334 0 83.30666667 67.84 151.14666667 151.14666667 151.14666666S663.14666667 921.70666667 663.14666667 838.4c0-76.26666667-56.96-138.88-130.45333334-149.01333333v-28.26666667c73.49333333-10.24 130.45333333-72.85333333 130.45333334-149.12zM465.49333333 157.12V129.06666667c18.45333333-5.44 34.45333333-13.22666667 47.89333334-23.46666667h20.8v160H501.33333333V142.4c-4.05333333 3.52-9.6 6.61333333-16.53333333 9.49333333-6.93333333 2.77333333-13.44 4.48-19.30666667 5.22666667zM402.24 512c0-60.48 49.28-109.76 109.76-109.76S621.76 451.52 621.76 512 572.48 621.76 512 621.76 402.24 572.48 402.24 512z m219.52 326.4c0 60.48-49.28 109.76-109.76 109.76S402.24 898.88 402.24 838.4 451.52 728.64 512 728.64 621.76 777.81333333 621.76 838.4z" p-id="36035" fill="#555555"/><path d="M564.05333333 564.37333333h-66.45333333c0-2.98666667 1.81333333-6.61333333 5.44-10.66666666 3.62666667-4.05333333 10.77333333-9.92 21.33333333-17.49333334 10.98666667-7.78666667 18.98666667-14.4 24-19.94666666 5.01333333-5.54666667 8.74666667-11.41333333 11.41333334-17.70666667 2.66666667-6.29333333 3.94666667-13.33333333 3.94666666-21.22666667 0-13.97333333-4.58666667-25.06666667-13.65333333-32.96-9.06666667-8-21.44-11.94666667-37.12-11.94666666-17.06666667 0-32.42666667 4.37333333-46.08 13.22666666v29.12c12.26666667-10.77333333 25.17333333-16.21333333 38.61333333-16.21333333 15.36 0 23.04 7.04 23.04 21.12 0 6.50666667-2.02666667 12.69333333-6.08 18.56-4.05333333 5.86666667-11.09333333 12.58666667-21.22666666 20.05333333-11.09333333 7.78666667-19.2 14.61333333-24.42666667 20.48-5.22666667 5.86666667-9.38666667 12.16-12.37333333 18.88-2.98666667 6.72-4.48 14.18666667-4.48 22.29333334v11.62666666h104.10666666v-27.2zM468.48 765.76v26.98666667c9.92-6.82666667 20.16-10.34666667 30.61333333-10.34666667 16.10666667 0 24.21333333 6.72 24.21333334 20.05333333 0 14.18666667-10.56 21.22666667-31.57333334 21.22666667h-12.8v25.17333333h13.86666667c11.09333333 0 19.73333333 1.92 25.92 5.86666667 6.18666667 3.94666667 9.28 9.6 9.28 16.96 0 7.25333333-2.56 12.8-7.78666667 16.64s-12.16 5.86666667-21.01333333 5.86666667c-13.97333333 0-26.13333333-3.94666667-36.58666667-11.73333334v28.8c9.81333333 5.33333333 22.82666667 8 38.93333334 8 18.13333333 0 32.64-4.16 43.52-12.58666666 10.88-8.32 16.32-19.94666667 16.32-34.88 0-9.70666667-3.30666667-17.92-9.81333334-24.74666667-6.50666667-6.82666667-15.25333333-10.77333333-26.13333333-11.94666667v-0.53333333c20.8-5.22666667 31.14666667-18.13333333 31.14666667-38.61333333 0-12.16-4.58666667-21.65333333-13.86666667-28.48-9.28-6.82666667-21.22666667-10.24-36.05333333-10.24-14.72 0.10666667-27.41333333 2.98666667-38.18666667 8.53333333z" p-id="36036" fill="#555555"/></svg>