<?xml version="1.0" standalone="no"?><!DOCTYPE svg PUBLIC "-//W3C//DTD SVG 1.1//EN" "http://www.w3.org/Graphics/SVG/1.1/DTD/svg11.dtd"><svg t="1684737461576" class="icon" viewBox="0 0 1024 1024" version="1.1" xmlns="http://www.w3.org/2000/svg" p-id="2984" xmlns:xlink="http://www.w3.org/1999/xlink" width="200" height="200"><path d="M1008.48197518 625.27209927a113.27209927 113.27209927 0 0 1-113.27209813 113.27209814H717.21086408V350.1827163h161.81728369a97.09036999 97.09036999 0 0 1 97.09037113 97.09036999 96.44310073 96.44310073 0 0 1-35.40562261 74.40358742A113.17500814 113.17500814 0 0 1 1008.48197518 625.27209927z m-113.27209813-167.48088889c0-23.69004999-19.19153038-42.88158037-42.88158037-42.88158037H781.93777778v85.95734073h70.3905189c23.69004999 0 42.88158037-19.19153038 42.88158037-42.88158037v-0.19417999z m32.36345629 151.29915961a64.72691371 64.72691371 0 0 0-64.72691371-64.7269137H781.93777778v129.45382741h97.09036999a48.54518557 48.54518557 0 0 0 48.54518557-48.54518443V609.09036999zM490.66666667 609.09036999h-97.09036999v-129.45382628h97.09036999v-63.98255445L657.53265038 544.36345629 490.66666667 673.07292445V609.09036999z m-215.76716629 0H123.89161074L69.94172814 738.54419741H5.21481444l161.81728484-388.36148111h64.72691256l161.81728484 388.36148111h-64.72691371l-53.94988259-129.45382742zM199.39555556 427.85501184L150.85037 544.36345629h97.09037112L199.39555556 427.85501184z" fill="#888888" p-id="2985" data-spm-anchor-id="a313x.7781069.0.i0" class="selected"></path></svg>