<?xml version="1.0" standalone="no"?><!DOCTYPE svg PUBLIC "-//W3C//DTD SVG 1.1//EN" "http://www.w3.org/Graphics/SVG/1.1/DTD/svg11.dtd"><svg t="1653288271620" class="icon" viewBox="0 0 1024 1024" version="1.1" xmlns="http://www.w3.org/2000/svg" p-id="2442" xmlns:xlink="http://www.w3.org/1999/xlink" width="200" height="200"><defs><style type="text/css">@font-face { font-family: feedback-iconfont; src: url("//at.alicdn.com/t/font_1031158_u69w8yhxdu.woff2?t=1630033759944") format("woff2"), url("//at.alicdn.com/t/font_1031158_u69w8yhxdu.woff?t=1630033759944") format("woff"), url("//at.alicdn.com/t/font_1031158_u69w8yhxdu.ttf?t=1630033759944") format("truetype"); }
</style></defs><path d="M122.368 165.888h778.24c-9.216 0-16.384-7.168-16.384-16.384v713.728c0-9.216 7.168-16.384 16.384-16.384h-778.24c9.216 0 16.384 7.168 16.384 16.384V150.016c0 8.192-6.656 15.872-16.384 15.872z m-32.768 684.544c0 26.112 20.992 47.104 47.104 47.104h750.08c26.112 0 47.104-20.992 47.104-47.104V162.304c0-26.112-20.992-47.104-47.104-47.104H136.704c-26.112 0-47.104 20.992-47.104 47.104v688.128z" p-id="2443"></path><path d="M268.73344 307.73248v49.152h-50.176v-49.152zM268.81536 466.0224v49.152h-50.176v-49.152zM268.9024 624.32256v49.152h-50.176v-49.152zM533.56544 307.6096v49.152h-230.912v-49.152zM533.64736 465.89952v49.152h-230.912v-49.152zM533.7344 624.19456v49.152h-230.912v-49.152z" p-id="2444"></path><path d="M678.912 460.8h46.08v255.488h-46.08z" p-id="2445"></path><path d="M568.21248 643.88608l32.57856-32.58368 133.59104 133.59104-32.57856 32.58368z" p-id="2446"></path><path d="M669.3376 744.6528l133.59104-133.59616 32.58368 32.58368-133.59104 133.59104z" p-id="2447"></path></svg>