<svg xmlns="http://www.w3.org/2000/svg" xmlns:xlink="http://www.w3.org/1999/xlink" t="1628600439637" class="icon" viewBox="0 0 1024 1024" version="1.1" p-id="32785" width="200" height="200"><defs><style type="text/css"/></defs><path d="M295.1168 356.352h45.6704c6.3488 0 11.4688 5.12 11.4688 11.4688V504.832c0 6.3488-5.12 11.4688-11.4688 11.4688-6.3488 0-11.4688 5.12-11.4688 11.4688 0 6.3488 5.12 11.4688 11.4688 11.4688h68.608c6.3488 0 11.4688-5.12 11.4688-11.4688 0-6.3488-5.12-11.4688-11.4688-11.4688-6.3488 0-11.4688-5.12-11.4688-11.4688V367.7184c0-6.3488 5.12-11.4688 11.4688-11.4688h45.6704c6.3488 0 11.4688 5.12 11.4688 11.4688s5.12 11.4688 11.4688 11.4688c6.3488 0 11.4688-5.12 11.4688-11.4688v-45.6704c0-6.3488-5.12-11.4688-11.4688-11.4688H272.2816c-6.3488 0-11.4688 5.12-11.4688 11.4688v45.6704c0 6.3488 5.12 11.4688 11.4688 11.4688s11.4688-5.12 11.4688-11.4688C283.648 361.472 288.768 356.352 295.1168 356.352z" p-id="32786" fill="#555555"/><path d="M409.2928 539.5456h-68.608c-6.4512 0-11.776-5.3248-11.776-11.776 0-6.5536 5.3248-11.776 11.776-11.776 6.144 0 11.0592-4.9152 11.0592-11.0592v-137.216c0-6.144-4.9152-11.0592-11.0592-11.0592h-45.6704c-6.144 0-11.0592 4.9152-11.0592 11.0592 0 6.4512-5.3248 11.776-11.776 11.776s-11.776-5.3248-11.776-11.776v-45.6704c0-6.4512 5.3248-11.776 11.776-11.776h205.6192c6.4512 0 11.776 5.3248 11.776 11.776v45.6704c0 6.4512-5.3248 11.776-11.776 11.776-6.5536 0-11.776-5.3248-11.776-11.776 0-6.144-4.9152-11.0592-11.0592-11.0592h-45.6704c-6.144 0-11.0592 4.9152-11.0592 11.0592V504.832c0 6.144 4.9152 11.0592 11.0592 11.0592 6.4512 0 11.776 5.3248 11.776 11.776 0 6.5536-5.2224 11.8784-11.776 11.8784zM295.1168 355.9424h45.6704c6.4512 0 11.776 5.3248 11.776 11.776V504.832c0 6.4512-5.3248 11.776-11.776 11.776-6.144 0-11.0592 4.9152-11.0592 11.0592 0 6.144 4.9152 11.0592 11.0592 11.0592h68.608c6.144 0 11.0592-4.9152 11.0592-11.0592 0-6.144-4.9152-11.0592-11.0592-11.0592-6.4512 0-11.776-5.3248-11.776-11.776V367.7184c0-6.4512 5.3248-11.776 11.776-11.776h45.6704c6.4512 0 11.776 5.3248 11.776 11.776 0 6.144 4.9152 11.0592 11.0592 11.0592 6.144 0 11.0592-4.9152 11.0592-11.0592v-45.6704c0-6.144-4.9152-11.0592-11.0592-11.0592H272.1792c-6.144 0-11.0592 4.9152-11.0592 11.0592v45.6704c0 6.144 4.9152 11.0592 11.0592 11.0592s11.0592-4.9152 11.0592-11.0592c0-6.4512 5.3248-11.776 11.8784-11.776zM546.4064 402.0224h205.6192c6.3488 0 11.4688 5.12 11.4688 11.4688v22.8352c0 6.3488-5.12 11.4688-11.4688 11.4688H546.4064c-6.3488 0-11.4688-5.12-11.4688-11.4688v-22.8352c0.1024-6.3488 5.2224-11.4688 11.4688-11.4688z" p-id="32787" fill="#555555"/><path d="M752.128 448.1024H546.4064c-6.4512 0-11.776-5.3248-11.776-11.776v-22.8352c0-6.4512 5.3248-11.776 11.776-11.776h205.6192c6.4512 0 11.776 5.3248 11.776 11.776v22.8352c0.1024 6.4512-5.2224 11.776-11.6736 11.776zM546.4064 402.432c-6.144 0-11.0592 4.9152-11.0592 11.0592v22.8352c0 6.144 4.9152 11.0592 11.0592 11.0592h205.6192c6.144 0 11.0592-4.9152 11.0592-11.0592v-22.8352c0-6.144-4.9152-11.0592-11.0592-11.0592H546.4064zM546.4064 493.4656h205.6192c6.3488 0 11.4688 5.12 11.4688 11.4688v22.8352c0 6.3488-5.12 11.4688-11.4688 11.4688H546.4064c-6.3488 0-11.4688-5.12-11.4688-11.4688V504.832c0.1024-6.2464 5.2224-11.3664 11.4688-11.3664z" p-id="32788" fill="#555555"/><path d="M752.128 539.5456H546.4064c-6.4512 0-11.776-5.3248-11.776-11.776V504.832c0-6.4512 5.3248-11.776 11.776-11.776h205.6192c6.4512 0 11.776 5.3248 11.776 11.776v22.8352c0.1024 6.5536-5.2224 11.8784-11.6736 11.8784z m-205.7216-45.7728c-6.144 0-11.0592 4.9152-11.0592 11.0592v22.8352c0 6.144 4.9152 11.0592 11.0592 11.0592h205.6192c6.144 0 11.0592-4.9152 11.0592-11.0592V504.832c0-6.144-4.9152-11.0592-11.0592-11.0592H546.4064zM272.1792 584.8064h479.8464c6.3488 0 11.4688 5.12 11.4688 11.4688v22.8352c0 6.3488-5.12 11.4688-11.4688 11.4688H272.1792c-6.3488 0-11.4688-5.12-11.4688-11.4688v-22.8352c0.1024-6.3488 5.2224-11.4688 11.4688-11.4688z" p-id="32789" fill="#555555"/><path d="M752.128 630.8864H272.1792c-6.4512 0-11.776-5.3248-11.776-11.776v-22.8352c0-6.4512 5.3248-11.776 11.776-11.776h479.8464c6.4512 0 11.776 5.3248 11.776 11.776v22.8352c0.1024 6.5536-5.2224 11.776-11.6736 11.776z m-479.9488-45.6704c-6.144 0-11.0592 4.9152-11.0592 11.0592v22.8352c0 6.144 4.9152 11.0592 11.0592 11.0592h479.8464c6.144 0 11.0592-4.9152 11.0592-11.0592v-22.8352c0-6.144-4.9152-11.0592-11.0592-11.0592H272.1792zM272.1792 676.2496h479.8464c6.3488 0 11.4688 5.12 11.4688 11.4688v22.8352c0 6.3488-5.12 11.4688-11.4688 11.4688H272.1792c-6.3488 0-11.4688-5.12-11.4688-11.4688v-22.8352c0.1024-6.3488 5.2224-11.4688 11.4688-11.4688z" p-id="32790" fill="#555555"/><path d="M752.128 722.3296H272.1792c-6.4512 0-11.776-5.3248-11.776-11.776v-22.8352c0-6.4512 5.3248-11.776 11.776-11.776h479.8464c6.4512 0 11.776 5.3248 11.776 11.776v22.8352c0.1024 6.4512-5.2224 11.776-11.6736 11.776z m-479.9488-45.7728c-6.144 0-11.0592 4.9152-11.0592 11.0592v22.8352c0 6.144 4.9152 11.0592 11.0592 11.0592h479.8464c6.144 0 11.0592-4.9152 11.0592-11.0592v-22.8352c0-6.144-4.9152-11.0592-11.0592-11.0592H272.1792zM546.4064 310.6816h205.6192c6.3488 0 11.4688 5.12 11.4688 11.4688v22.8352c0 6.3488-5.12 11.4688-11.4688 11.4688H546.4064c-6.3488 0-11.4688-5.12-11.4688-11.4688v-22.8352c0.1024-6.4512 5.2224-11.4688 11.4688-11.4688z" p-id="32791" fill="#555555"/><path d="M752.128 356.6592H546.4064c-6.4512 0-11.776-5.3248-11.776-11.776v-22.8352c0-6.4512 5.3248-11.776 11.776-11.776h205.6192c6.4512 0 11.776 5.3248 11.776 11.776v22.8352c0.1024 6.5536-5.2224 11.776-11.6736 11.776z m-205.7216-45.6704c-6.144 0-11.0592 4.9152-11.0592 11.0592v22.8352c0 6.144 4.9152 11.0592 11.0592 11.0592h205.6192c6.144 0 11.0592-4.9152 11.0592-11.0592v-22.8352c0-6.144-4.9152-11.0592-11.0592-11.0592H546.4064z" p-id="32792" fill="#555555"/><path d="M825.856 886.784H198.4512c-33.5872 0-60.8256-27.3408-60.8256-60.8256V200.8064c0-33.5872 27.3408-60.8256 60.8256-60.8256h627.3024c33.5872 0 60.8256 27.3408 60.8256 60.8256v625.152c0.1024 33.4848-27.2384 60.8256-60.7232 60.8256zM198.4512 186.7776c-7.7824 0-14.0288 6.3488-14.0288 14.0288v625.152c0 7.7824 6.3488 14.0288 14.0288 14.0288h627.3024c7.7824 0 14.0288-6.3488 14.0288-14.0288V200.8064c0-7.7824-6.3488-14.0288-14.0288-14.0288H198.4512z" p-id="32793" fill="#555555"/></svg>