<svg xmlns="http://www.w3.org/2000/svg" xmlns:xlink="http://www.w3.org/1999/xlink" t="1672280226561" class="icon" viewBox="0 0 1024 1024" version="1.1" p-id="2137" width="200" height="200"><path d="M712.704 220.672c-135.68-135.68-355.84-135.68-491.52 0s-135.68 355.84 0 491.52 355.84 135.68 491.52 0 135.68-355.84 0-491.52zM145.92 787.456C-31.744 610.304-31.744 322.56 145.92 144.896c177.664-177.152 464.896-177.152 642.56 0 177.664 177.664 177.664 464.896 0 642.56s-465.408 177.664-642.56 0z m848.896 206.336c-24.064 24.064-63.488 24.064-87.552 0L819.2 906.24c-24.064-24.064-24.064-63.488 0-87.552 24.064-24.064 63.488-24.064 87.552 0l87.552 87.552c24.576 24.064 24.576 63.488 0.512 87.552z" fill="#555555" p-id="2138"/></svg>