<svg xmlns="http://www.w3.org/2000/svg" xmlns:xlink="http://www.w3.org/1999/xlink" t="1668083832259" class="icon" viewBox="0 0 1024 1024" version="1.1" p-id="2248" width="200" height="200"><path d="M933.12 464.213333c30.293333-29.44 13.653333-81.066667-28.16-87.466666l-206.08-29.866667c-16.64-2.56-31.146667-12.8-38.4-28.16L567.893333 132.266667c-18.773333-37.973333-72.96-37.973333-91.733333 0L384 319.146667c-7.253333 14.933333-21.76 25.6-38.4 28.16l-206.08 29.866666c-41.813333 5.973333-58.88 57.6-28.16 87.466667l149.333333 145.493333c11.946667 11.946667 17.493333 28.586667 14.506667 45.226667l-35.413333 205.226667c-7.253333 41.813333 36.693333 73.813333 74.24 53.76l184.32-96.853334c14.933333-7.68 32.853333-7.68 47.786666 0l184.32 96.853334c37.546667 19.626667 81.493333-11.946667 74.24-53.76l-35.413333-205.226667c-2.986667-16.64 2.56-33.706667 14.506667-45.226667l149.333333-145.92z m-196.693333 96.426667c-28.16 27.306667-40.96 66.986667-34.56 105.813333l29.44 171.093334-153.6-80.64c-17.066667-8.96-36.266667-13.653333-55.466667-13.653334s-38.4 4.693333-55.466667 13.653334l-153.6 80.64 29.44-171.093334c6.826667-38.826667-6.4-78.08-34.133333-105.813333L183.466667 439.466667l171.946666-25.173334c38.826667-5.546667 72.533333-30.293333 90.026667-65.28l76.8-155.733333 76.8 155.733333c17.493333 35.413333 51.2 59.733333 90.026667 65.28l171.946666 25.173334-124.586666 121.173333z" fill="#555555" p-id="2249"/><path d="M581.546667 674.986667h-119.466667c-18.773333 0-34.133333-15.36-34.133333-34.133334s15.36-34.133333 34.133333-34.133333h119.466667c18.773333 0 34.133333 15.36 34.133333 34.133333s-15.36 34.133333-34.133333 34.133334z" fill="#555555" p-id="2250"/></svg>