<svg t="1681126057531" class="icon" viewBox="0 0 1024 1024" version="1.1" xmlns="http://www.w3.org/2000/svg" p-id="12440" width="200" height="200"><path d="M0 872V152h1024v720H0z m944-640H80v560h864V232zM147.848 394.184a25.744 25.744 0 0 1 18.064 6.312 20.592 20.592 0 0 1 6.904 15.872 20.96 20.96 0 0 1-7.04 16.136 25.528 25.528 0 0 1-17.928 6.44 25.192 25.192 0 0 1-17.8-6.504 21.008 21.008 0 0 1-7.04-16.072 20.384 20.384 0 0 1 6.976-16 25.936 25.936 0 0 1 17.864-6.184z m21.12 216.48h-42.768V463.776h42.768v146.888z m35.936-165.752a51.832 51.832 0 0 1 16.336-40.112 60.92 60.92 0 0 1 42.896-15.008 74.92 74.92 0 0 1 22.312 2.792v33.736a45.36 45.36 0 0 0-16.6-3.456q-22.048 0-22.048 24.44v16.472h33.472v32h-33.464v114.88h-42.904V495.784h-24.568v-32h24.568v-18.864z m129.6 46.48h0.528q10.624-30.144 38.648-30.152a30.216 30.216 0 0 1 11.552 1.728v39.712a37.464 37.464 0 0 0-18.992-4.52 27.68 27.68 0 0 0-23.2 11.16 49.248 49.248 0 0 0-8.56 30.68v70.656h-42.896v-146.88h42.896v27.624z m94.912 29.488l40.376-5.448q0-25.6-26.696-25.6a86.048 86.048 0 0 0-49.536 15.936v-33.096a94.496 94.496 0 0 1 26.632-9.032 143.912 143.912 0 0 1 28.488-3.456q61.6 0 61.6 61.76v88.72h-40.8v-21.376h-0.512a48.264 48.264 0 0 1-44 24.968A46.576 46.576 0 0 1 391.6 602.4a42.4 42.4 0 0 1-12.552-32.336q0-42.272 50.336-49.176z m-5.008 57.52a21.968 21.968 0 0 0 15.2 5.048 28 28 0 0 0 21.648-9.296 32.96 32.96 0 0 0 8.504-23.112v-10.496l-27.76 3.584q-23.24 3.056-23.24 20.984a16.952 16.952 0 0 0 5.648 13.288zM579.28 486.752h0.528a53.936 53.936 0 0 1 20.456-19.552 55.128 55.128 0 0 1 26.824-6.968 42.056 42.056 0 0 1 42.4 27.76 54.552 54.552 0 0 1 49.408-27.76q47.944 0 47.944 59.2v91.232h-42.792V526.864q0-33.736-24.568-33.736a22.808 22.808 0 0 0-18.992 10.224 40.8 40.8 0 0 0-7.568 24.968v82.344h-42.776V525.8q0-32.672-24.304-32.672a22.864 22.864 0 0 0-19.32 9.76 42.336 42.336 0 0 0-7.2 25.832v81.944h-42.936V463.776h42.896v22.976z m271.544-26.56a63.384 63.384 0 0 1 48.8 18.928 73.392 73.392 0 0 1 17.6 52v18.192h-96.68q2.256 34.136 41.176 34.136a77.6 77.6 0 0 0 42.896-11.952v31.464a106.768 106.768 0 0 1-52.592 11.288 72.984 72.984 0 0 1-54.52-19.792 75.2 75.2 0 0 1-19.456-55.12 80 80 0 0 1 20.72-57.176 68.528 68.528 0 0 1 52.056-21.968z m26.4 62.288q0-32.936-26.696-32.936a26.112 26.112 0 0 0-19.52 9.032 42.624 42.624 0 0 0-10.624 23.904h56.8z" p-id="12441" fill="#555555"></path></svg>