<?xml version="1.0" standalone="no"?><!DOCTYPE svg PUBLIC "-//W3C//DTD SVG 1.1//EN" "http://www.w3.org/Graphics/SVG/1.1/DTD/svg11.dtd"><svg t="1639108445256" class="icon" viewBox="0 0 1024 1024" version="1.1" xmlns="http://www.w3.org/2000/svg" p-id="2297" xmlns:xlink="http://www.w3.org/1999/xlink" width="200" height="200"><defs><style type="text/css"></style></defs><path d="M841.373567 841.133572h73.138571v73.138571h-73.138571v-73.138571z m-146.287143 0h73.148571v73.138571H695.086424v-73.138571z m-146.277143 0h73.138572v73.138571h-73.138572v-73.138571z m-146.277143 0h73.138572v73.138571h-73.138572v-73.138571z m-292.574286 0h73.138572v73.138571h-73.138572v-73.138571z m0-731.415715h73.138572v73.138572h-73.138572V109.717857z m146.287143 731.415715h73.138572v73.138571h-73.138572v-73.138571zM109.957852 694.846429h73.138572v73.148571h-73.138572v-73.148571z m0-146.287143h73.138572v73.138571h-73.138572v-73.138571z m0-146.277143h73.138572v73.138571h-73.138572v-73.138571z m0-146.287143h73.138572v73.138572h-73.138572v-73.138572z m731.415715 438.851429h73.138571v73.148571h-73.138571v-73.148571z m0-146.287143h73.138571v73.138571h-73.138571v-73.138571z m0-146.277143h73.138571v73.138571h-73.138571v-73.138571z m0-146.287143h73.138571v73.138572h-73.138571v-73.138572z m0-146.277143h73.138571v73.138572h-73.138571V109.717857z m-146.287143 0h73.148571v73.138572H695.086424V109.717857z m-146.277143 0h73.138572v73.138572h-73.138572V109.717857z m-146.277143 0h73.138572v73.138572h-73.138572V109.717857z m-146.287143 0h73.138572v73.138572h-73.138572V109.717857z m0 0" fill="#555555" p-id="2298"></path><path d="M951.091424 0H73.388567C33.159352 0 0.249995 32.909357 0.249995 73.138572v877.702857c0 40.229214 32.909357 73.138572 73.138572 73.138571h877.702857c40.229214 0 73.138572-32.909357 73.138572-73.138571V73.138572c0-40.229214-32.909357-73.138572-73.138572-73.138572z m0 914.272143c0 21.939571-14.629714 36.569286-36.569286 36.569286H109.957852c-21.939571 0-36.569286-14.629714-36.569285-36.569286V109.717857c0-21.939571 14.629714-36.569286 36.569285-36.569286h804.554286c21.939571 0 36.569286 14.629714 36.569286 36.569286v804.554286z m0 0" fill="#555555" p-id="2299"></path></svg>