<?xml version="1.0" standalone="no"?><!DOCTYPE svg PUBLIC "-//W3C//DTD SVG 1.1//EN" "http://www.w3.org/Graphics/SVG/1.1/DTD/svg11.dtd"><svg t="1776781285363" class="icon" viewBox="0 0 1024 1024" version="1.1" xmlns="http://www.w3.org/2000/svg" p-id="5063" xmlns:xlink="http://www.w3.org/1999/xlink" width="16" height="16"><path d="M290.89 483.13c8.41-0.05 16.49 3.25 22.47 9.18L756.31 935.26c12.41 12.41 12.41 32.52 0 44.93-12.41 12.4-32.52 12.4-44.93 0l-442.96-442.96a31.64 31.64 0 0 1-9.36-22.46c0-8.44 3.38-16.53 9.36-22.46a31.636 31.636 0 0 1 22.47-9.18z m0 0" p-id="5064" fill="#ffffff"></path><path d="M733.85000001 40.18c8.41-0.05 16.49 3.25 22.45999999 9.17a31.657 31.657 0 0 1 9.35999999 22.46c0 8.44-3.37 16.53-9.35999999 22.46L313.36 537.24c-12.41 12.4-32.52 12.4-44.93 0-12.41-12.4-12.41-32.52 0-44.93l442.96-442.96000001a31.594 31.594 0 0 1 22.46000001-9.16999999z m0 0" p-id="5065" fill="#ffffff"></path></svg>