<svg t="1776332254798" class="icon" viewBox="0 0 1024 1024" version="1.1" xmlns="http://www.w3.org/2000/svg" p-id="5961" width="128" height="128"><path d="M143.36 697.5488a40.96 40.96 0 0 1 40.96-40.96h122.88a40.96 40.96 0 0 1 40.96 40.96v122.88a40.96 40.96 0 0 1-40.96 40.96H184.32a40.96 40.96 0 0 1-40.96-40.96v-122.88zM675.84 697.5488a40.96 40.96 0 0 1 40.96-40.96h122.88a40.96 40.96 0 0 1 40.96 40.96v122.88a40.96 40.96 0 0 1-40.96 40.96h-122.88a40.96 40.96 0 0 1-40.96-40.96v-122.88zM409.6 697.5488a40.96 40.96 0 0 1 40.96-40.96h122.88a40.96 40.96 0 0 1 40.96 40.96v122.88a40.96 40.96 0 0 1-40.96 40.96h-122.88a40.96 40.96 0 0 1-40.96-40.96v-122.88zM184.32 124.1088a40.96 40.96 0 0 0-40.96 40.96v389.12a40.96 40.96 0 0 0 40.96 40.96h655.36a40.96 40.96 0 0 0 40.96-40.96v-389.12a40.96 40.96 0 0 0-40.96-40.96H184.32z m189.44 389.12a46.08 46.08 0 1 1 0-92.16 46.08 46.08 0 0 1 0 92.16z m184.32-46.08a46.08 46.08 0 1 1-92.16 0 46.08 46.08 0 0 1 92.16 0z m92.16 46.08a46.08 46.08 0 1 1 0-92.16 46.08 46.08 0 0 1 0 92.16z" p-id="5962" fill="#8a8a8a"></path></svg>