<svg t="1684135837326" class="icon" viewBox="0 0 1024 1024" version="1.1" xmlns="http://www.w3.org/2000/svg" p-id="2012" width="200" height="200"><path d="M127.27466666666665 512c-22.775466666666667 0-41.233066666666666 22.818133333333332-41.233066666666666 50.9952v8.951466666666667c0 22.8352 12.142933333333334 42.15466666666667 28.8768 48.64853333333333L181.64053333333337 512h-54.36586666666667zM330.2570666666666 512l-68.16426666666666 110.93333333333334h141.99466666666666l68.15573333333333-110.93333333333334zM900.6250666666667 512H478.4384L410.2826666666666 622.9333333333334h490.3424c22.766933333333334 0 41.216-22.843733333333333 41.216-50.9952v-8.951466666666667c0-28.16853333333333-18.449066666666667-50.986666666666665-41.216-50.986666666666665z m26.120533333333327 58.376533333333334c0 18.321066666666663-15.8208 33.18613333333333-35.3536 33.18613333333333H565.9136l44.34773333333333-72.18346666666666h281.12213333333335c19.5328 0 35.3536 14.847999999999997 35.3536 33.1776v5.819733333333334zM187.82719999999998 512l-67.6608 110.11413333333333c2.321066666666667 0.5034666666666666 4.676266666666667 0.8192 7.108266666666666 0.8192h128.63146666666665l68.16426666666666-110.93333333333334H187.82719999999998z" fill="#555555" p-id="2013"></path></svg>