<svg t="1706239374102" class="icon" viewBox="0 0 1024 1024" version="1.1" xmlns="http://www.w3.org/2000/svg" p-id="14178" width="200" height="200"><path d="M762.06 640.11V107.28c0-21.78-17.34-39.43-39.43-39.43H39.12C17.6 67.85 0 85.5 0 107.28v532.83c0 21.8 17.6 39.42 39.12 39.42h683.52c22.08 0 39.42-17.62 39.42-39.42z m-78.85-39.4H78.54V146.98h604.67v453.73z m301.37-270.89c-21.8 0-39.12 17.88-39.12 39.68v493.13H301.37c-21.8 0-39.17 17.62-39.17 39.43 0 21.52 17.36 39.43 39.17 39.43h683.21c21.83 0 39.43-17.91 39.43-39.43V369.5c-0.01-21.8-17.6-39.68-39.43-39.68zM853.74 810.66c21.52 0 39.17-17.91 39.17-39.71V238.12c0-21.8-17.65-39.68-39.17-39.68-21.78 0-39.37 17.88-39.37 39.68v493.69h-644.1c-21.54 0-39.43 17.31-39.43 39.14 0 21.8 17.88 39.71 39.43 39.71h683.47z" fill="#555555" p-id="14179"></path></svg>