<?xml version="1.0" standalone="no"?><!DOCTYPE svg PUBLIC "-//W3C//DTD SVG 1.1//EN" "http://www.w3.org/Graphics/SVG/1.1/DTD/svg11.dtd"><svg t="1628599157974" class="icon" viewBox="0 0 1024 1024" version="1.1" xmlns="http://www.w3.org/2000/svg" p-id="11473" xmlns:xlink="http://www.w3.org/1999/xlink" width="200" height="200"><defs><style type="text/css"></style></defs><path d="M1016.988 652.01l-256-320c-6.074-7.592-15.266-12.01-24.988-12.01l-448 0c-9.72 0-18.916 4.418-24.988 12.01l-256 320c-4.538 5.674-7.012 12.724-7.012 19.99l0 288c0 35.346 28.654 64 64 64l896 0c35.348 0 64-28.654 64-64l0-288c0-7.266-2.472-14.316-7.012-19.99zM960 704l-224 0-128 128-192 0-128-128-224 0 0-20.776 239.38-299.224 417.24 0 239.38 299.224 0 20.776z" p-id="11474" fill="#555555"></path></svg>