<svg t="1659683532870" class="icon" viewBox="0 0 1024 1024" version="1.1" xmlns="http://www.w3.org/2000/svg" p-id="2003" width="200" height="200"><path d="M655.542534 544.752239m-30.16989 30.169889l0 0q-30.169889 30.169889-60.339778 0l-150.849447-150.849446q-30.169889-30.169889 0-60.339779l0 0q30.169889-30.169889 60.339779 0l150.849446 150.849447q30.169889 30.169889 0 60.339778Z" fill="#555555" p-id="2004"></path><path d="M595.220448 486.412235m30.16989 30.169889l0 0q30.169889 30.169889 0 60.339779l-150.849447 150.849446q-30.169889 30.169889-60.339779 0l0 0q-30.169889-30.169889 0-60.339778l150.849447-150.849447q30.169889-30.169889 60.339779 0Z" fill="#555555" p-id="2005"></path><path d="M213.333333 341.333333H85.333333v384h128V341.333333m85.333334 0v384a85.333333 85.333333 0 0 1-85.333334 85.333334H85.333333a85.333333 85.333333 0 0 1-85.333333-85.333334V341.333333a85.333333 85.333333 0 0 1 85.333333-85.333333h128a85.333333 85.333333 0 0 1 85.333334 85.333333zM938.666667 341.333333h-128v384h128V341.333333m85.333333 0v384a85.333333 85.333333 0 0 1-85.333333 85.333334h-128a85.333333 85.333333 0 0 1-85.333334-85.333334V341.333333a85.333333 85.333333 0 0 1 85.333334-85.333333h128a85.333333 85.333333 0 0 1 85.333333 85.333333z" fill="#555555" p-id="2006"></path></svg>