<?xml version="1.0" standalone="no"?><!DOCTYPE svg PUBLIC "-//W3C//DTD SVG 1.1//EN" "http://www.w3.org/Graphics/SVG/1.1/DTD/svg11.dtd"><svg t="1628600740095" class="icon" viewBox="0 0 1024 1024" version="1.1" xmlns="http://www.w3.org/2000/svg" p-id="36890" xmlns:xlink="http://www.w3.org/1999/xlink" width="200" height="200"><defs><style type="text/css"></style></defs><path d="M831.20303681 894.51577062H193.09686619c-35.09529159 0-63.65247632-28.55165146-63.65247632-63.64694306v-638.12941034c0-35.09529159 28.55718473-63.65247632 63.65247632-63.65247632h638.10727727c35.09529159 0 63.6458364 28.55718473 63.64583641 63.65247632v638.1349436c0.00553327 35.09086498-28.54501155 63.6414098-63.64694306 63.6414098zM193.09686619 186.90403513a5.83648876 5.83648876 0 0 0-5.82984883 5.82984883v638.1349436a5.83648876 5.83648876 0 0 0 5.82984883 5.82542221h638.10727727a5.82984884 5.82984884 0 0 0 5.82431558-5.82542221v-638.12941034a5.83648876 5.83648876 0 0 0-5.82542223-5.82984883H193.09686619z" fill="#555555" p-id="36891"></path><path d="M165.26564593 337.39447809H865.94087943v57.82262748h-700.67744681z" fill="#555555" p-id="36892"></path><path d="M377.95220966 345.41218022h57.82262749v500.41527807h-57.82262749z" fill="#555555" p-id="36893"></path></svg>