<?xml version="1.0" standalone="no"?><!DOCTYPE svg PUBLIC "-//W3C//DTD SVG 1.1//EN" "http://www.w3.org/Graphics/SVG/1.1/DTD/svg11.dtd"><svg t="1637057151118" class="icon" viewBox="0 0 1024 1024" version="1.1" xmlns="http://www.w3.org/2000/svg" p-id="7492" xmlns:xlink="http://www.w3.org/1999/xlink" width="200" height="200"><defs><style type="text/css"></style></defs><path d="M637.9 317.4c-23.9 0-43.3 19.6-43.3 43.7 0 24.2 19.4 43.7 43.3 43.7s43.3-19.6 43.3-43.7-19.4-43.7-43.3-43.7z m0 257.5c-23.9 0-43.3 19.6-43.3 43.7s19.4 43.7 43.3 43.7 43.3-19.6 43.3-43.7-19.4-43.7-43.3-43.7zM533.3 273.1c11.8 0 21.4-9.5 21.4-21.4V133c0-11.8-9.6-21.4-21.4-21.4-11.8 0-21.4 9.6-21.4 21.4v118.8c0.1 11.8 9.6 21.3 21.4 21.3z m-66.2 88.1c0 24.2 19.4 43.7 43.3 43.7s43.3-19.6 43.3-43.7c0-24.2-19.4-43.7-43.3-43.7-23.9-0.1-43.3 19.5-43.3 43.7z m43.3 213.7c-23.9 0-43.3 19.6-43.3 43.7s19.4 43.7 43.3 43.7 43.3-19.6 43.3-43.7-19.4-43.7-43.3-43.7z m256.5-257.5c-23.9 0-43.3 19.6-43.3 43.7 0 24.2 19.4 43.7 43.3 43.7s43.3-19.6 43.3-43.7c0.1-24.1-19.3-43.7-43.3-43.7zM510.4 702.3c-23.9 0-43.3 19.6-43.3 43.7s19.4 43.7 43.3 43.7 43.3-19.6 43.3-43.7-19.4-43.7-43.3-43.7z m256.5-127.4c-23.9 0-43.3 19.6-43.3 43.7s19.4 43.7 43.3 43.7 43.3-19.6 43.3-43.7-19.3-43.7-43.3-43.7z m0-128.8c-23.9 0-43.3 19.6-43.3 43.7 0 24.2 19.4 43.7 43.3 43.7s43.3-19.6 43.3-43.7c0.1-24.1-19.3-43.7-43.3-43.7z m-129 0c-23.9 0-43.3 19.6-43.3 43.7 0 24.2 19.4 43.7 43.3 43.7s43.3-19.6 43.3-43.7-19.4-43.7-43.3-43.7z m44.9-264.4H575.6v42.7h107.2v-42.7z m42.7 91.4c11.8 0 21.4-9.5 21.4-21.4V133c0-11.8-9.6-21.4-21.4-21.4-11.8 0-21.4 9.6-21.4 21.4v118.8c0 11.8 9.6 21.3 21.4 21.3z m-342.6 173c-23.9 0-43.3 19.6-43.3 43.7 0 24.2 19.4 43.7 43.3 43.7s43.3-19.6 43.3-43.7c0.1-24.1-19.3-43.7-43.3-43.7z m-170.8 43.8c0 24.2 19.4 43.7 43.3 43.7s43.3-19.6 43.3-43.7c0-24.2-19.4-43.7-43.3-43.7-23.9-0.1-43.3 19.5-43.3 43.7z m43.4 85c-23.9 0-43.3 19.6-43.3 43.7s19.4 43.7 43.3 43.7 43.3-19.6 43.3-43.7-19.4-43.7-43.3-43.7z m0 127.4c-23.9 0-43.3 19.6-43.3 43.7s19.4 43.7 43.3 43.7 43.3-19.6 43.3-43.7-19.4-43.7-43.3-43.7zM106.2 267.1c0-23.6 19.1-42.7 42.7-42.7h127.8v-42.7H127.5c-35.4 0-64.1 28.7-64.1 64.1v490.8h42.7V267.1z m404.2 179c-23.9 0-43.3 19.6-43.3 43.7 0 24.2 19.4 43.7 43.3 43.7s43.3-19.6 43.3-43.7-19.4-43.7-43.3-43.7z m385.9-264.4H768.2v42.7h106.7c23.6 0 42.7 19.1 42.7 42.7v555.2c0 23.6-19.1 42.7-42.7 42.7h-726c-23.6 0-42.7-19.1-42.7-42.7v-84.6H63.4v106c0 35.4 28.7 64.1 64.1 64.1h768.8c35.4 0 64.1-28.7 64.1-64.1V245.8c0-35.4-28.7-64.1-64.1-64.1zM382.9 404.9c23.9 0 43.3-19.6 43.3-43.7 0-24.2-19.4-43.7-43.3-43.7s-43.3 19.6-43.3 43.7 19.4 43.7 43.3 43.7z m107.3-223.2H362v42.7h128.1v-42.7z m-170.4 91.4c11.8 0 21.4-9.5 21.4-21.4V133c0-11.8-9.6-21.4-21.4-21.4-11.8 0-21.4 9.6-21.4 21.4v118.8c0 11.8 9.6 21.3 21.4 21.3z m63.1 429.2c-23.9 0-43.3 19.6-43.3 43.7s19.4 43.7 43.3 43.7 43.3-19.6 43.3-43.7-19.3-43.7-43.3-43.7z m0-127.4c-23.9 0-43.3 19.6-43.3 43.7s19.4 43.7 43.3 43.7 43.3-19.6 43.3-43.7-19.3-43.7-43.3-43.7z" p-id="7493" fill="#555555"></path></svg>