<svg viewBox="0 0 1024 1024" version="1.1" xmlns="http://www.w3.org/2000/svg" p-id="5105"
    width="200" height="200">
    <path
        d="M548.571429 146.285714q0-14.857143-10.857143-25.714286t-25.714286-10.857143-25.714286 10.857143-10.857143 25.714286 10.857143 25.714286 25.714286 10.857143 25.714286-10.857143 10.857143-25.714286zm475.428571 530.285714l0 201.142857q0 12.571429-11.428571 17.142857-4.571429 1.142857-6.857143 1.142857-7.428571 0-13.142857-5.142857l-53.142857-53.142857q-68 81.714286-182 129.428571t-245.428571 47.714286-245.428571-47.714286-182-129.428571l-53.142857 53.142857q-5.142857 5.142857-13.142857 5.142857-2.285714 0-6.857143-1.142857-11.428571-4.571429-11.428571-17.142857l0-201.142857q0-8 5.142857-13.142857t13.142857-5.142857l201.142857 0q12.571429 0 17.142857 11.428571 4.571429 10.857143-4 20l-57.142857 57.142857q38.285714 52 108.285714 87.714286t155.142857 47.142857l0-369.714286-109.714286 0q-14.857143 0-25.714286-10.857143t-10.857143-25.714286l0-73.142857q0-14.857143 10.857143-25.714286t25.714286-10.857143l109.714286 0 0-93.142857q-33.142857-19.428571-53.142857-52.857143t-20-73.428571q0-60.571429 42.857143-103.428571t103.428571-42.857143 103.428571 42.857143 42.857143 103.428571q0 40-20 73.428571t-53.142857 52.857143l0 93.142857 109.714286 0q14.857143 0 25.714286 10.857143t10.857143 25.714286l0 73.142857q0 14.857143-10.857143 25.714286t-25.714286 10.857143l-109.714286 0 0 369.714286q85.142857-11.428571 155.142857-47.142857t108.285714-87.714286l-57.142857-57.142857q-8.571429-9.142857-4-20 4.571429-11.428571 17.142857-11.428571l201.142857 0q8 0 13.142857 5.142857t5.142857 13.142857z"
        fill="#515151"></path>
</svg>