<svg xmlns="http://www.w3.org/2000/svg" xmlns:xlink="http://www.w3.org/1999/xlink" t="1628599385829" class="icon" viewBox="0 0 1024 1024" version="1.1" p-id="14973" width="200" height="200"><defs><style type="text/css"/></defs><path d="M631.116335 0.419836H392.483493c-14.914053 0-25.573802 12.786901-25.573802 27.700954v53.266759c0 14.914053 12.794898 27.700954 25.573802 27.700954h238.624845c14.914053 0 25.573802-12.786901 25.573802-27.700954V28.12079C658.817289 13.19874 646.030388 0.419836 631.108338 0.419836z m364.358708 0H756.834204c-14.914053 0-27.700954 12.786901-27.700954 27.700954v53.266759c0 14.914053 12.786901 27.700954 27.700954 27.700954h238.640839c14.914053-2.127152 27.700954-12.786901 27.700954-27.700954V28.12079c0-14.914053-12.786901-27.700954-27.700954-27.700954z m0 178.984628H320.032383c-14.92205 0-27.700954-12.786901-27.700954-27.700954V28.12079c0-14.914053-12.786901-27.700954-27.700953-27.700954H28.116788C13.194738 0.419836 0.415834 13.206737 0.415834 28.12079V997.606196c0 12.778904 12.786901 25.565805 27.700954 25.565806h967.358255c14.914053 0 27.700954-12.786901 27.700954-27.700954V207.105418c0-14.914053-12.786901-27.700954-27.700954-27.700954z" p-id="14974" fill="#555555"/></svg>