<svg viewBox="0 0 1024 1024" version="1.1" xmlns="http://www.w3.org/2000/svg" width="200"
    height="200">
    <path
        d="M941.738667 78.677333a33.450667 33.450667 0 0 0-23.8592-10.24H102.4c-8.533333 0-17.066667 3.413333-23.893333 10.24s-10.24 15.36-10.24 23.893334v208.145066c0 8.533333 3.413333 17.066667 10.24 23.893334s15.36 10.24 23.893333 10.24h815.479467c8.533333 0 17.066667-3.413333 23.8592-10.24 6.8608-6.826667 10.274133-15.36 10.274133-23.893334V102.570667c0-8.533333-3.413333-17.066667-10.274133-23.893334z m-57.992534 57.992534v139.912533H136.533333V136.669867h747.2128z"
        fill="#515151" p-id="4376"></path>
    <path
        d="M184.285867 191.2832c-1.706667 5.12-1.706667 8.533333-1.706667 13.653333s0 8.533333 1.706667 13.653334c1.706667 8.533333 6.826667 15.36 11.946666 20.48 8.533333 8.533333 20.48 13.653333 34.133334 13.653333s25.6-5.12 34.133333-13.653333 13.6192-20.48 13.6192-34.133334-5.12-25.6-13.6192-34.133333c-8.533333-8.533333-20.48-13.653333-34.133333-13.653333-13.6192 0-25.6 5.12-34.133334 13.653333-5.12 5.12-10.24 11.946667-11.946666 20.48z m767.726933 216.644267c0-8.4992-3.413333-17.032533-10.274133-23.8592a33.450667 33.450667 0 0 0-23.8592-10.24H102.4c-8.533333 0-17.066667 3.413333-23.893333 10.24s-10.24 15.36-10.24 23.8592v208.145066c0 8.533333 3.413333 17.066667 10.24 23.8592 6.826667 6.8608 15.36 10.274133 23.893333 10.274134h815.479467c8.533333 0 17.066667-3.413333 23.8592-10.274134a33.518933 33.518933 0 0 0 10.274133-23.8592v-208.145066z m-68.266667 34.133333v139.8784H136.533333v-139.8784h747.2128z"
        fill="#515151" p-id="4377"></path>
    <path
        d="M278.084267 510.293333c0-13.6192-5.12-25.565867-13.6192-34.0992-8.533333-8.533333-20.48-13.653333-34.133334-13.653333-13.6192 0-25.6 5.12-34.133333 13.653333-5.12 5.085867-10.24 11.946667-11.946667 20.48-1.706667 5.12-1.706667 8.533333-1.706666 13.6192 0 5.12 0 8.533333 1.706666 13.653334 1.706667 8.533333 6.826667 15.36 11.946667 20.48 8.533333 8.533333 20.48 13.653333 34.133333 13.653333s25.6-5.12 34.133334-13.653333 13.6192-20.48 13.6192-34.133334z m663.6544 179.0976a33.621333 33.621333 0 0 0-23.8592-10.205866H102.4c-8.533333 0-17.066667 3.413333-23.893333 10.205866-6.826667 6.8608-10.24 15.394133-10.24 23.927467v208.145067c0 8.533333 3.413333 17.066667 10.24 23.8592 6.826667 6.792533 15.36 10.205867 23.893333 10.205866h815.479467c8.533333 0 17.066667-3.413333 23.8592-10.205866a33.518933 33.518933 0 0 0 10.274133-23.8592v-208.145067c0-8.533333-3.413333-17.066667-10.274133-23.927467z m-57.992534 57.992534v139.946666H136.533333v-139.946666h747.2128z"
        fill="#515151" p-id="4378"></path>
    <path
        d="M184.285867 801.9968c-1.706667 5.12-1.706667 8.533333-1.706667 13.653333s0 8.533333 1.706667 13.653334c1.706667 8.533333 6.826667 15.325867 11.946666 20.48 8.533333 8.533333 20.48 13.653333 34.133334 13.653333s25.6-5.12 34.133333-13.653333 13.6192-20.48 13.6192-34.133334-5.12-25.6-13.6192-34.133333c-8.533333-8.533333-20.48-13.585067-34.133333-13.585067-13.6192 0-25.6 5.051733-34.133334 13.585067-5.12 5.154133-10.24 11.946667-11.946666 20.48z"
        fill="#515151" p-id="4379"></path>
</svg>