<svg t="1678173929706" class="icon" viewBox="0 0 1024 1024" version="1.1" xmlns="http://www.w3.org/2000/svg" p-id="8323" width="200" height="200"><path d="M778.666667 576h-42.666667a53.333333 53.333333 0 0 1 0-106.666667h42.666667a53.333333 53.333333 0 0 1 0 106.666667zM970.666667 576h-42.666667a53.333333 53.333333 0 0 1 0-106.666667h42.666667a53.333333 53.333333 0 0 1 0 106.666667z" fill="#555555" p-id="8324"></path><path d="M170.709333 864.042667a53.333333 53.333333 0 0 1-47.488-28.970667 662.826667 662.826667 0 0 1-66.389333-335.146667 546.133333 546.133333 0 0 1 115.669333-320.896l2.090667-2.304a66.602667 66.602667 0 0 1 70.272-21.333333c40.704 12.8 53.973333 57.728 66.005333 110.677333 10.752 47.189333 23.253333 120.874667 40.576 238.933334a481.109333 481.109333 0 0 0 20.736 91.221333 415.36 415.36 0 0 0 23.125334-91.562667c8.533333-55.168 21.802667-115.2 73.002666-128a75.562667 75.562667 0 0 1 73.557334 24.448 311.893333 311.893333 0 0 1 30.250666 36.693334c5.205333 6.997333 13.269333 17.834667 18.474667 23.424a53.333333 53.333333 0 0 1-14.549333 104.661333 98.133333 98.133333 0 0 1-75.221334-45.653333v0.426666a476.928 476.928 0 0 1-37.717333 133.504c-29.269333 59.733333-66.218667 72.149333-92.16 72.149334h-0.256c-25.344 0-61.226667-12.074667-88.32-68.821334a497.664 497.664 0 0 1-36.352-137.173333c-6.058667-41.344-20.48-139.349333-34.133333-207.786667a555.946667 555.946667 0 0 0 6.357333 473.6 53.333333 53.333333 0 0 1-47.402667 77.738667z" fill="#555555" p-id="8325"></path></svg>