<svg t="1650874332616" class="icon" viewBox="0 0 1024 1024" version="1.1" xmlns="http://www.w3.org/2000/svg" p-id="5530" width="200" height="200"><path d="M1001.730048 749.6704a22.272 22.272 0 0 1 22.272 22.272v22.2208a22.272 22.272 0 0 1-22.272 22.272H22.274048A22.272 22.272 0 0 1 0.002048 794.1632v-22.2208a22.272 22.272 0 0 1 22.272-22.272h979.456zM85.506048 242.176v329.0624H245.762048v66.2528H6.402048V242.176H85.506048z m276.48 96.1536v299.1616H284.059648V338.3296H361.986048z m228.9664-7.4752c64.6144 0 92.416 44.8512 92.416 120.2176v186.4192h-78.5408V460.8c0-45.9264-12.8-62.464-42.1888-62.464-24.576 0-40.0896 11.7248-62.5152 33.6384v205.6704H422.094848V338.432h64.1536l5.3248 39.5264h2.1504c26.112-25.6512 56.6272-47.0528 97.2288-47.0528v-0.0512z m225.6896-119.7056v256.4608h2.2016l103.6288-129.28h85.504l-103.6288 122.368 113.2544 176.7936h-84.992l-72.6016-123.904-43.3152 49.152v74.752H740.354048V211.2h76.3904zM323.586048 204.8c26.7264 0 46.4896 17.1008 46.4896 42.752 0 24.576-19.7632 42.752-46.4896 42.752-27.2384 0-47.0016-18.176-47.0016-42.752 0-25.6512 19.7632-42.752 47.0016-42.752z" p-id="5531" fill="#555555"></path></svg>