<?xml version="1.0" standalone="no"?><!DOCTYPE svg PUBLIC "-//W3C//DTD SVG 1.1//EN" "http://www.w3.org/Graphics/SVG/1.1/DTD/svg11.dtd"><svg t="1636538371615" class="icon" viewBox="0 0 1110 1024" version="1.1" xmlns="http://www.w3.org/2000/svg" p-id="11354" xmlns:xlink="http://www.w3.org/1999/xlink" width="216.796875" height="200"><defs><style type="text/css"></style></defs><path d="M946.939661 418.312678a23.170169 23.170169 0 0 0 23.100746-23.239593V116.197966c0-64.04339-51.833492-116.197966-115.486373-116.197966H115.477695C51.824814 0 0 52.154576 0 116.197966v790.154848c0 64.04339 51.824814 116.197966 115.477695 116.197966h739.076339c63.652881 0 115.477695-52.154576 115.477695-116.197966V766.906576a23.170169 23.170169 0 0 0-23.092068-23.239593 23.170169 23.170169 0 0 0-23.100746 23.239593v139.446238c0 38.44339-31.084475 69.71878-69.284881 69.718779H115.477695c-38.200407 0-69.284881-31.284068-69.284881-69.718779V232.395932h877.654779v162.677153a23.178847 23.178847 0 0 0 23.092068 23.239593zM46.192814 185.916746V116.197966c0-38.44339 31.084475-69.71878 69.284881-69.71878h739.076339c38.200407 0 69.293559 31.27539 69.293559 69.71878v69.71878H46.192814z m69.284881-46.479187a23.170169 23.170169 0 0 0 23.100746-23.239593 23.170169 23.170169 0 0 0-23.100746-23.239593 23.170169 23.170169 0 0 0-23.092068 23.239593 23.170169 23.170169 0 0 0 23.092068 23.239593z m92.385627 0a23.170169 23.170169 0 0 0 23.100746-23.239593 23.170169 23.170169 0 0 0-23.100746-23.239593 23.170169 23.170169 0 0 0-23.092068 23.239593 23.170169 23.170169 0 0 0 23.092068 23.239593z m92.385627 0a23.170169 23.170169 0 0 0 23.100746-23.239593 23.170169 23.170169 0 0 0-23.100746-23.239593 23.170169 23.170169 0 0 0-23.092068 23.239593 23.170169 23.170169 0 0 0 23.092068 23.239593zM792.471864 558.63539c56.545627 9.346169 85.182915 32.490305 85.182916 68.842305 0 39.085559-40.604203 69.71878-92.429017 69.71878-49.10861 0-88.740881-27.752136-92.24678-64.564068a23.170169 23.170169 0 0 1 20.783729-25.330983c12.84339-1.674847 23.97722 8.131254 25.17478 20.913898 0.928542 9.389559 18.944 22.493288 46.244881 22.493288 27.856271 0 46.279593-13.988881 46.279593-23.239593 0-6.968407-8.035797-16.635661-46.427119-22.99661l-3.089355-24.081356-3.740204 22.90983c-56.580339-9.250712-85.321763-32.394847-85.321763-68.790237 0-39.085559 40.612881-69.71878 92.437695-69.71878 49.099932 0 88.732203 27.752136 92.24678 64.564068a23.170169 23.170169 0 0 1-20.792407 25.330983c-12.982237 1.483932-23.968542-8.183322-25.166101-20.913898-0.928542-9.389559-18.944-22.449898-46.25356-22.449898-27.847593-0.052068-46.279593 13.936814-46.279593 23.187525 0 5.71878 6.05722 16.314576 46.565966 22.961898l6.829559 1.162848z m252.676339 22.406508l58.845289 78.969492a23.317695 23.317695 0 0 1-4.616678 32.533695 22.961898 22.961898 0 0 1-32.334102-4.65139l-50.766102-68.13939-50.809491 68.13939a23.005288 23.005288 0 0 1-32.334102 4.65139 23.317695 23.317695 0 0 1-4.616678-32.542373l58.888678-78.969492-58.940746-79.056271a23.317695 23.317695 0 0 1 4.616678-32.533695 22.909831 22.909831 0 0 1 32.334102 4.642712l50.861559 68.191458 50.809492-68.191458a23.031322 23.031322 0 0 1 32.334101-4.642712 23.317695 23.317695 0 0 1 4.625356 32.542373l-58.897356 79.056271zM623.598644 464.791864a23.170169 23.170169 0 0 1 23.092068 23.239594v139.437559c0 38.44339-31.084475 69.71878-69.284881 69.71878-38.209085 0-69.293559-31.27539-69.29356-69.71878a23.170169 23.170169 0 0 1 23.100746-23.239593 23.170169 23.170169 0 0 1 23.092068 23.239593 23.170169 23.170169 0 0 0 23.100746 23.239593 23.170169 23.170169 0 0 0 23.092067-23.239593V488.031458a23.170169 23.170169 0 0 1 23.100746-23.239594z" fill="#555555" p-id="11355"></path></svg>