<svg t="1704699489011" class="icon" viewBox="0 0 1024 1024" version="1.1" xmlns="http://www.w3.org/2000/svg" p-id="5621" width="200" height="200"><path d="M128 85.333333h768v85.333334H128V85.333333zM128 853.333333h768v85.333334H128v-85.333334zM405.333333 682.666667h213.333334v85.333333H405.333333v-85.333333z" fill="#555555" p-id="5622"></path><path d="M213.333333 128a42.666667 42.666667 0 0 1 42.666667-42.666667h512a42.666667 42.666667 0 0 1 42.666667 42.666667v192a42.666667 42.666667 0 0 1-8.981334 26.197333L672.725333 512l128.96 165.802667A42.666667 42.666667 0 0 1 810.666667 704v192a42.666667 42.666667 0 0 1-42.666667 42.666667H256a42.666667 42.666667 0 0 1-42.666667-42.666667v-192a42.666667 42.666667 0 0 1 8.981334-26.197333L351.274667 512l-128.96-165.802667A42.666667 42.666667 0 0 1 213.333333 320V128z m85.333334 42.666667v134.698666l140.352 180.437334a42.666667 42.666667 0 0 1 0 52.394666L298.666667 718.634667V853.333333h426.666666v-134.698666l-140.352-180.437334a42.666667 42.666667 0 0 1 0-52.394666L725.333333 305.365333V170.666667H298.666667z" fill="#555555" p-id="5623"></path><path d="M478.314667 442.197333l-74.666667-96 67.370667-52.394666L512 346.496l40.981333-52.693333 67.370667 52.394666-74.666667 96a42.666667 42.666667 0 0 1-67.370666 0z" fill="#555555" p-id="5624"></path></svg>