<svg t="1679629617600" class="icon" viewBox="0 0 1024 1024" version="1.1" xmlns="http://www.w3.org/2000/svg" p-id="15038" width="200" height="200"><path d="M518.2976 82.432a435.2 435.2 0 1 1 0 870.4 435.2 435.2 0 0 1 0-870.4z m62.6688 373.9136a37.9904 37.9904 0 0 0-30.5664 55.5008 65.3312 65.3312 0 0 1-13.5168 72.3968l-101.9904 102.144a64.9728 64.9728 0 0 1-91.7504 0 64.9728 64.9728 0 0 1 0-91.7504l37.9904-37.9904-0.256-0.3072a37.9392 37.9392 0 1 0-52.8384-54.2208l-0.1024-0.1024-38.7584 38.7584a140.8512 140.8512 0 1 0 199.2704 199.2704l102.2464-102.1952a140.9536 140.9536 0 0 0 28.16-158.5152c-0.256-0.5632-0.4096-1.1264-0.7168-1.6896-0.1024-0.1024-0.1024-0.2048-0.1536-0.3584a38.0416 38.0416 0 0 0-37.0176-20.992z m-27.4432-171.52L451.2768 387.072a140.9536 140.9536 0 0 0-28.2624 158.4128l0.768 1.6896c0.1024 0.1024 0.1024 0.2048 0.1536 0.3584a38.0416 38.0416 0 0 0 71.8848-19.8144 38.8608 38.8608 0 0 0-4.3008-14.7456 65.3312 65.3312 0 0 1 13.568-72.3968l102.0416-102.0416a64.9728 64.9728 0 0 1 91.7504 0 64.9728 64.9728 0 0 1 0 91.7504l-37.9904 37.9904 0.256 0.3072a37.9392 37.9392 0 1 0 52.8384 54.2208l0.1024 0.1024 38.7584-38.7584a140.8512 140.8512 0 1 0-199.2704-199.2704z" fill="#555555" fill-opacity=".75" p-id="15039"></path></svg>