<?xml version="1.0" standalone="no"?><!DOCTYPE svg PUBLIC "-//W3C//DTD SVG 1.1//EN" "http://www.w3.org/Graphics/SVG/1.1/DTD/svg11.dtd"><svg class="icon" width="200px" height="200.00px" viewBox="0 0 1024 1024" version="1.1" xmlns="http://www.w3.org/2000/svg"><path fill="#555555" d="M947.2 194.56l-20.48-40.96c-51.2 30.72-97.28 66.56-143.36 97.28-46.08-51.2-112.64-81.92-189.44-81.92h-204.8c-143.36 0-256 112.64-256 256v204.8c0 143.36 112.64 256 256 256h204.8c143.36 0 256-112.64 256-256v-204.8c0-40.96-10.24-76.8-25.6-107.52 40.96-46.08 81.92-87.04 122.88-122.88z m-148.48 225.28v204.8c0 112.64-92.16 204.8-204.8 204.8h-204.8c-112.64 0-204.8-92.16-204.8-204.8v-204.8c0-112.64 92.16-204.8 204.8-204.8h204.8c56.32 0 112.64 25.6 148.48 61.44-122.88 97.28-215.04 194.56-261.12 256L307.2 399.36 230.4 460.8l302.08 302.08c35.84-97.28 133.12-256 261.12-404.48 0 20.48 5.12 40.96 5.12 61.44z"  /></svg>