<svg t="1691029300207" class="icon" viewBox="0 0 1024 1024" version="1.1" xmlns="http://www.w3.org/2000/svg" p-id="2340" width="200" height="200"><path d="M765.184 125.44l73.898667 42.666667-48.426667 83.754666H896v85.333334h-85.333333v170.666666h85.333333v85.333334h-85.333333v298.666666h-85.333334v-298.666666h-131.584c-13.866667 122.112-66.730667 230.144-143.786666 306.901333l-66.645334-54.186667c64.853333-61.354667 110.762667-150.272 124.458667-252.672H426.666667v-85.333333l85.333333-0.085333V337.194667h-85.333333v-85.333334h105.258666L483.584 168.106667l73.898667-42.666667 73.002666 126.464h61.610667l73.088-126.464zM213.333333 584.746667l-85.333333 22.869333v-88.32l85.333333-22.912V337.194667H128v-85.333334h85.333333v-128h85.333334v128h85.333333v85.333334H298.666667V473.6l85.333333-22.869333v88.32l-85.333333 22.869333v223.274667a106.666667 106.666667 0 0 1-106.666667 106.666666H128v-85.333333h64a21.333333 21.333333 0 0 0 20.992-17.493333l0.341333-3.84v-200.405334z m512-247.594667h-128v170.666667h128v-170.666667z" p-id="2341" fill="#555555"></path></svg>