<?xml version="1.0" standalone="no"?><!DOCTYPE svg PUBLIC "-//W3C//DTD SVG 1.1//EN" "http://www.w3.org/Graphics/SVG/1.1/DTD/svg11.dtd"><svg t="1669192350566" class="icon" viewBox="0 0 1024 1024" version="1.1" xmlns="http://www.w3.org/2000/svg" p-id="9823" xmlns:xlink="http://www.w3.org/1999/xlink" width="200" height="200"><path d="M476.288 689.344v91.648c0 19.776 15.872 35.776 35.648 35.776a35.84 35.84 0 0 0 35.84-35.776v-91.648a83.2 83.2 0 0 0-35.84-158.464 83.264 83.264 0 0 0-35.648 158.464z" p-id="9824"></path><path d="M881.344 355.968H313.984c-0.896-7.872-2.368-15.552-2.368-23.68a204.032 204.032 0 0 1 204.032-204.032c62.656 0 117.888 28.736 155.328 73.152l0.704-0.384c8.768 11.072 21.76 18.624 36.992 18.624a48 48 0 0 0 48-48 46.976 46.976 0 0 0-9.92-27.904l0.32-0.256c-0.64-0.832-1.344-1.408-1.92-2.24-1.472-1.728-2.88-3.456-4.608-4.992-54.848-63.104-134.656-103.936-224.832-103.936A300.096 300.096 0 0 0 215.68 332.352c0 8.064 1.216 15.808 1.856 23.616h-74.88c-37.888 0-68.608 30.72-68.608 68.608v498.496c0 37.888 30.72 68.608 68.608 68.608h738.88c37.888 0 68.48-30.72 68.48-68.608V424.576c0-37.888-30.784-68.608-68.672-68.608z m-27.328 540.224H169.92V453.184h684.032v443.008z" p-id="9825"></path></svg>