<svg xmlns="http://www.w3.org/2000/svg" xmlns:xlink="http://www.w3.org/1999/xlink" t="1629808038012" class="icon" viewBox="0 0 1024 1024" version="1.1" p-id="2123" width="200" height="200"><defs><style type="text/css"/></defs><path d="M542.117647 121.976471V60.235294h90.352941V0h-240.941176v60.235294H481.882353v61.741177c-235.038118 15.661176-421.647059 211.305412-421.647059 450.258823C60.235294 821.368471 262.866824 1024 512 1024S963.764706 821.368471 963.764706 572.235294c0-238.953412-186.608941-434.597647-421.647059-450.258823zM512 963.764706C296.116706 963.764706 120.470588 788.118588 120.470588 572.235294S296.116706 180.705882 512 180.705882 903.529412 356.352 903.529412 572.235294 727.883294 963.764706 512 963.764706zM542.117647 542.117647h240.941177v60.235294H481.882353V361.411765h60.235294v180.705882z" p-id="2124" fill="#555555"/></svg>