<svg t="1701083839344" class="icon" viewBox="0 0 1024 1024" version="1.1" xmlns="http://www.w3.org/2000/svg" p-id="5947" width="200" height="200"><path d="M832 725.33333334V469.33333334a320 320 0 0 0-192-294.4 128 128 0 1 0-256 0A320 320 0 0 0 192 469.33333334v256l-64 128h768zM448 149.33333334a64 64 0 0 1 128 0 59.52 59.52 0 0 1 0 6.4 314.24 314.24 0 0 0-128 0A59.52 59.52 0 0 1 448 149.33333334zM231.68 789.33333334l17.92-35.2 6.4-13.44V469.33333334a256 256 0 0 1 512 0v271.36l7.04 13.44 17.92 35.2zM320 917.33333334h384v64H320z" p-id="5948" fill="#555555"></path></svg>