<svg xmlns="http://www.w3.org/2000/svg" viewBox="0 0 34 24" aria-hidden="true">
  <path d="M0 7.006C0 4.793 1.82 3 4.061 3H29.94C32.18 3 34 4.792 34 7.006v9.988C34 19.207 32.18 21 29.939 21H4.06C1.82 21 0 19.208 0 16.994V7.006zm2 0v9.988C2 18.103 2.913 19 4.038 19h25.924C31.086 19 32 18.102 32 16.994V7.006C32 5.897 31.087 5 29.962 5H4.038C2.914 5 2 5.898 2 7.006zm4.729 7.9H4V9h2.682c1.157 0 1.883.569 1.883 1.473 0 .647-.504 1.187-1.158 1.281v.033c.837.062 1.452.647 1.452 1.429 0 1.04-.815 1.69-2.13 1.69zM5.289 9.92v1.535h.927c.688 0 1.08-.29 1.08-.79 0-.475-.345-.745-.948-.745H5.29zm0 4.064H6.4c.744 0 1.145-.303 1.145-.868 0-.552-.414-.847-1.174-.847H5.29v1.715zm8.425-3.467v4.388H12.51v-.79h-.026c-.226.552-.678.872-1.37.872-.99 0-1.648-.618-1.648-1.641v-2.829h1.246v2.579c0 .585.304.896.854.896.556 0 .901-.38.901-.962v-2.513h1.247zm1.145-1.01h1.246v1.01h.846v.9h-.846v2.1c0 .336.171.496.538.496.111 0 .227-.009.304-.02v.88a3.058 3.058 0 0 1-.594.048c-1.076 0-1.494-.344-1.494-1.199V11.42h-.645v-.9h.645V9.507zm3.108 0h1.247v1.01h.845v.9h-.845v2.1c0 .336.17.496.538.496.111 0 .226-.009.303-.02v.88a3.047 3.047 0 0 1-.593.048c-1.076 0-1.495-.344-1.495-1.199V11.42h-.645v-.9h.645V9.507zM22.843 15c-1.383 0-2.267-.851-2.267-2.292 0-1.42.897-2.284 2.267-2.284 1.371 0 2.268.86 2.268 2.284 0 1.445-.884 2.292-2.268 2.292zm0-.913c.611 0 1-.495 1-1.375 0-.872-.393-1.375-1-1.375-.606 0-1.003.503-1.003 1.375 0 .88.389 1.375 1.003 1.375zm2.908.819v-4.388h1.204v.782h.026c.244-.544.726-.863 1.43-.863 1.017 0 1.589.613 1.589 1.64v2.829h-1.247v-2.579c0-.573-.282-.9-.841-.9-.56 0-.914.393-.914.962v2.517h-1.247z"></path>
</svg>