<svg t="1637752102659" class="icon" viewBox="0 0 1024 1024" version="1.1" xmlns="http://www.w3.org/2000/svg" p-id="85117" width="32" height="32"><path d="M139.648 256h744.704C961.493333 256 1024 313.301333 1024 384v256c0 70.698667-62.506667 128-139.648 128H139.648C62.506667 768 0 710.698667 0 640V384c0-70.698667 62.506667-128 139.648-128zM136.533333 298.666667C84.693333 298.666667 42.666667 336.853333 42.666667 384v256c0 47.146667 42.026667 85.333333 93.866666 85.333333h750.933334c51.84 0 93.866667-38.186667 93.866666-85.333333V384c0-47.146667-42.026667-85.333333-93.866666-85.333333H136.533333z" fill="#5F5F66" p-id="85118"></path><path d="M194.56 396.288h111.616c24.234667 0 43.349333 5.802667 57.002667 17.408 12.629333 10.922667 19.114667 25.6 19.114666 44.032 0 13.653333-3.413333 25.258667-9.898666 34.816-6.485333 8.874667-15.701333 15.36-27.989334 20.138667 16.042667 3.072 27.989333 9.557333 36.181334 19.456 7.850667 9.557333 11.946667 22.869333 11.946666 39.253333 0 24.576-8.533333 42.666667-25.258666 54.272-14.336 9.557333-34.816 14.336-60.757334 14.336H194.56V396.288z m39.936 32.768v69.632h61.098667c17.066667 0 29.013333-3.072 36.181333-8.533333 6.826667-5.802667 10.581333-15.018667 10.581333-27.648 0-11.605333-3.754667-20.138667-10.581333-25.258667-7.509333-5.461333-19.114667-8.192-35.498667-8.192H234.496z m0 102.4v75.776h66.218667c15.018667 0 26.965333-2.389333 35.498666-7.168 10.922667-6.144 16.384-15.701333 16.384-29.354667 0-13.994667-4.096-23.893333-11.946666-30.037333-8.192-6.144-21.162667-9.216-38.912-9.216H234.496zM411.306667 396.288h199.68v34.133333h-79.872V640h-39.936v-209.578667H411.306667v-34.133333z m228.693333 0h39.936l120.490667 175.786667h1.365333v-175.786667h40.277333V640h-38.912l-121.856-178.176h-1.365333V640H640V396.288z" fill="#5F5F66" p-id="85119"></path></svg>