<svg t="1611494191043" class="icon" viewBox="0 0 1024 1024" version="1.1" xmlns="http://www.w3.org/2000/svg" p-id="11177" width="32" height="32"><path d="M 918.016 119.986 L 105.984 119.986 c -23.1973 0 -42.0016 18.8033 -42.0016 42.0006 l 0 700.028 c 0 23.1963 18.8043 42.0006 42.0016 42.0006 l 812.032 0 c 23.1953 0 42.0016 -18.8033 42.0016 -42.0006 L 960.018 161.986 C 960.018 138.789 941.211 119.986 918.016 119.986 Z M 918.016 287.991 l 0 164.135 l -242.677 0 L 675.339 287.991 l 200.674 0 L 918.016 287.991 Z M 390.661 657.474 L 390.661 494.127 l 242.677 0 l 0 163.347 L 390.661 657.474 Z M 633.339 699.476 l 0 162.538 L 390.661 862.014 L 390.661 699.476 L 633.339 699.476 Z M 348.66 657.474 l -242.677 0 L 105.983 494.127 l 242.677 0 L 348.66 657.474 Z M 633.339 287.991 l 0 164.135 L 390.661 452.126 L 390.661 287.991 L 633.339 287.991 Z M 675.339 494.127 l 242.677 0 l 0 163.347 l -242.677 0 L 675.339 494.127 Z M 399.996 161.986 c 23.1973 0 42.0016 18.8033 42.0016 42.0026 c 0 23.1963 -18.8043 42.0006 -42.0016 42.0006 s -42.0026 -18.8033 -42.0026 -42.0006 C 357.993 180.79 376.799 161.986 399.996 161.986 Z M 273.991 161.986 c 23.1953 0 42.0016 18.8033 42.0016 42.0026 c 0 23.1963 -18.8053 42.0006 -42.0016 42.0006 c -23.1984 0 -42.0026 -18.8033 -42.0026 -42.0006 C 231.989 180.79 250.793 161.986 273.991 161.986 Z M 147.986 161.986 c 23.1953 0 42.0016 18.8033 42.0016 42.0026 c 0 23.1963 -18.8053 42.0006 -42.0016 42.0006 c -23.1984 0 -42.0026 -18.8033 -42.0026 -42.0006 C 105.984 180.79 124.788 161.986 147.986 161.986 Z M 147.986 287.991 l 200.674 0 l 0 164.135 l -242.677 0 L 105.984 287.991 L 147.986 287.991 Z M 105.984 699.476 l 242.677 0 l 0 162.538 l -242.677 0 L 105.984 699.476 Z M 675.339 862.014 L 675.339 699.476 l 242.677 0 l 0 162.538 L 675.339 862.014 Z" p-id="11178"></path></svg>