<svg xmlns="http://www.w3.org/2000/svg" xmlns:xlink="http://www.w3.org/1999/xlink" t="1628600869799" class="icon" viewBox="0 0 1024 1024" version="1.1" p-id="37920" width="200" height="200"><defs><style type="text/css"/></defs><path d="M290.417778 896c-22.091852 0-43.804444-4.361481-64-13.084444-6.921481-2.939259-11.946667-9.197037-13.368889-16.687408-1.422222-7.49037 0.948148-15.075556 6.257778-20.48l73.481481-73.481481c1.611852-1.611852 1.611852-4.456296 0-6.068148l-34.986667-34.986667c-1.611852-1.611852-4.456296-1.611852-6.068148 0L178.251852 804.693333l-0.18963 0.18963c-5.404444 5.30963-12.98963 7.68-20.385185 6.257778-7.395556-1.422222-13.653333-6.447407-16.592593-13.368889-12.894815-29.961481-16.308148-63.051852-10.05037-95.857778 12.325926-64.663704 62.008889-114.631111 126.577778-127.336296 28.918519-5.688889 58.121481-3.792593 85.238518 5.404444l237.131852-237.131852c-9.102222-26.737778-11.093333-55.561481-5.688889-84.10074 2.275556-11.946667 5.973333-23.703704 10.903704-34.891852 21.333333-48.165926 64.948148-82.868148 116.527407-92.823704 32.805926-6.257778 65.896296-2.844444 95.857778 10.05037 6.921481 2.939259 11.946667 9.197037 13.368889 16.687408 1.422222 7.49037-0.948148 15.075556-6.257778 20.48l-73.481481 73.481481c-1.611852 1.611852-1.611852 4.456296 0 6.068148l34.986667 34.986667c1.611852 1.611852 4.456296 1.611852 6.068148 0l73.481481-73.481481c5.404444-5.404444 12.98963-7.774815 20.48-6.257778 7.395556 1.422222 13.653333 6.447407 16.592593 13.368889 12.894815 29.961481 16.308148 63.051852 10.05037 95.857778-12.325926 64.663704-62.008889 114.631111-126.577778 127.336296-28.918519 5.688889-58.026667 3.792593-85.048889-5.404445L444.112593 681.339259c9.102222 26.642963 10.998519 55.371852 5.594074 83.911111-2.275556 11.946667-5.973333 23.703704-10.903704 34.891852-21.333333 48.165926-64.948148 82.868148-116.527407 92.823704-10.619259 1.991111-21.238519 3.034074-31.857778 3.034074z m-17.161482-43.899259c13.368889 1.896296 27.211852 1.517037 40.96-1.042963 37.925926-7.300741 69.878519-32.711111 85.617778-68.171852 3.602963-8.154074 6.257778-16.782222 7.964445-25.505185 4.740741-24.936296 1.896296-49.967407-8.05926-72.438519-3.602963-8.059259-1.896296-17.540741 4.361482-23.798518l256.948148-256.948148c6.257778-6.257778 15.739259-7.964444 23.798518-4.361482 22.755556 10.145185 48.071111 12.894815 73.291852 7.964445 47.312593-9.291852 83.816296-45.985185 92.918519-93.392593 2.654815-13.748148 2.939259-27.496296 1.042963-40.96l-49.682963 49.682963c-18.299259 18.299259-48.071111 18.299259-66.465185 0l-34.986667-34.986667c-18.299259-18.299259-18.299259-48.071111 0-66.465185l49.682963-49.682963c-13.368889-1.896296-27.211852-1.517037-40.96 1.042963-37.925926 7.300741-69.878519 32.711111-85.617778 68.171852-3.602963 8.154074-6.257778 16.782222-7.964444 25.505185-4.740741 25.031111-1.896296 50.062222 8.154074 72.628148 3.602963 8.059259 1.896296 17.540741-4.361482 23.798519L363.045926 619.994074c-6.257778 6.257778-15.739259 7.964444-23.798519 4.361482-22.755556-10.24-48.165926-12.98963-73.481481-7.964445-47.312593 9.291852-83.816296 45.985185-92.918519 93.392593-2.654815 13.748148-2.939259 27.496296-1.042963 40.96l49.682963-49.682963c18.299259-18.299259 48.071111-18.299259 66.465186 0l34.986666 34.986666c18.299259 18.299259 18.299259 48.071111 0 66.465186l-49.682963 49.588148z" p-id="37921" fill="#555555"/><path d="M367.217778 507.164444c-5.499259 0-10.903704-2.085926-15.075556-6.257777l-49.114074-49.114074-42.951111 42.951111c-6.257778 6.257778-14.696296 9.765926-23.608889 9.765926-8.912593 0-17.351111-3.508148-23.608889-9.765926L140.325926 422.21037c-16.213333-16.213333-16.213333-42.761481 0-58.974814l159.004444-159.004445c0.568889-0.568889 1.137778-1.042963 1.706667-1.517037 21.617778-22.660741 46.933333-40.485926 75.472593-53.191111 30.53037-13.558519 62.957037-20.48 96.616296-20.48 27.117037 0 53.76 4.551111 79.17037 13.463704 10.998519 3.887407 16.308148 14.506667 17.635556 22.376296 1.327407 8.533333-1.137778 18.394074-6.637037 25.884444-5.025185 6.826667-12.231111 11.282963-20.385185 12.515556-0.18963 0-0.379259 0.094815-0.663704 0.094815-74.42963 9.007407-133.404444 65.232593-146.583704 138.24l57.837037 57.837037c8.343704 8.343704 8.343704 21.807407 0 30.151111s-21.807407 8.343704-30.151111 0l-65.422222-65.422222c-4.835556-4.835556-7.016296-11.662222-5.973333-18.394074v-0.18963c5.783704-46.554074 27.306667-90.548148 60.681481-123.828148 21.997037-21.997037 48.64-38.874074 77.558519-49.398519-5.688889-0.474074-11.377778-0.758519-17.066667-0.758518-54.044444 0-106.192593 22.660741-142.980741 62.293333-0.853333 0.948148-1.801481 1.706667-2.749629 2.465185l-156.34963 156.444445 65.327407 65.327407 51.57926-51.579259c8.343704-8.343704 21.807407-8.343704 30.151111 0l64.189629 64.18963c8.343704 8.343704 8.343704 21.807407 0 30.151111a21.333333 21.333333 0 0 1-15.075555 6.257777z m26.548148-153.125925s0 0.094815 0 0c0 0.094815 0 0 0 0zM766.008889 895.905185c-12.136296 0-23.608889-4.740741-32.142222-13.274074L523.093333 671.857778c-8.343704-8.343704-8.343704-21.807407 0-30.151111s21.807407-8.343704 30.151111 0l210.773334 210.773333c0.663704 0.663704 1.422222 0.758519 1.991111 0.758519s1.327407-0.094815 1.991111-0.758519l36.977778-37.072593c1.042963-1.042963 1.042963-2.939259 0-3.982222L594.299259 600.651852c-8.343704-8.343704-8.343704-21.807407 0-30.151111s21.807407-8.343704 30.151111 0L835.223704 781.274074c17.73037 17.73037 17.73037 46.648889 0 64.379259L798.151111 882.725926c-8.533333 8.438519-20.005926 13.179259-32.142222 13.179259z" p-id="37922" fill="#555555"/></svg>