<?xml version="1.0" standalone="no"?><!DOCTYPE svg PUBLIC "-//W3C//DTD SVG 1.1//EN" "http://www.w3.org/Graphics/SVG/1.1/DTD/svg11.dtd"><svg t="1663658734078" class="icon" viewBox="0 0 1024 1024" version="1.1" xmlns="http://www.w3.org/2000/svg" p-id="2019" xmlns:xlink="http://www.w3.org/1999/xlink" width="200" height="200"><path d="M359.039327 59.007889h307.199424v54.399898h-307.199424v-54.399898z m590.718892 0h-161.919696v54.399898h143.359731a37.951929 37.951929 0 0 1 37.759929 37.69593v106.5598H55.039897V151.103717a37.56793 37.56793 0 0 1 37.759929-37.69593h143.359731v-54.399898H73.599862A73.599862 73.599862 0 0 0 0 132.159752v818.622465a73.535862 73.535862 0 0 0 73.599862 73.151863h876.158357A73.727862 73.727862 0 0 0 1023.99808 950.782217V132.159752A73.727862 73.727862 0 0 0 949.758219 59.007889z m19.199964 253.119526v619.710838a37.951929 37.951929 0 0 1-37.759929 37.695929H92.799826a37.56793 37.56793 0 0 1-37.759929-37.695929V312.127415h913.918286zM269.439495 0h55.039897v195.199634h-55.039897V0z m431.359191 0h55.039897v195.199634h-55.039897V0zM336.639369 553.982961v264.895504h60.799886V452.287152h-39.679926l-3.199994 4.351992a312.127415 312.127415 0 0 1-80.639849 77.887854l-4.479991 3.071994v61.631884l15.359971-9.279982a470.591118 470.591118 0 0 0 51.839903-35.967933z m300.159437 204.799616a68.799871 68.799871 0 0 1-48.639909 5.69599 61.055886 61.055886 0 0 1-40.319924-52.927901l-2.559995-10.047981-56.319895 15.359971 1.919997 9.343982a122.81577 122.81577 0 0 0 41.599922 74.559861 121.215773 121.215773 0 0 0 63.359881 24.127954q5.759989 0.383999 11.519978 0.384a126.719762 126.719762 0 0 0 46.719913-8.127985 131.775753 131.775753 0 0 0 42.879919-26.175951 108.223797 108.223797 0 0 0 27.519949-42.367921 164.415692 164.415692 0 0 0 9.599982-48.191909 143.039732 143.039732 0 0 0-4.479992-44.287917 186.68765 186.68765 0 0 0-17.279968-40.767924 83.903843 83.903843 0 0 0-40.319924-34.367935 144.703729 144.703729 0 0 0-54.399898-12.799976 118.015779 118.015779 0 0 0-41.599922 6.399988c3.839993-16.703969 8.319984-36.543931 12.799976-59.391889h131.839753v-56.959893h-179.199664l-1.279998 8.063985c-28.799946 132.735751-37.11993 166.847687-38.399928 172.031677l-4.479991 11.839978 53.1199 6.399988 3.839993-4.863991a61.119885 61.119885 0 0 1 35.839933-24.255954 77.439855 77.439855 0 0 1 40.319924 0 52.671901 52.671901 0 0 1 28.159947 20.351961 68.223872 68.223872 0 0 1 12.159977 38.399928 102.399808 102.399808 0 0 1-7.039986 42.94392 65.919876 65.919876 0 0 1-26.87995 29.567944z" p-id="2020" fill="#555555"></path></svg>