<svg t="1668084462501" class="icon" viewBox="0 0 1024 1024" version="1.1" xmlns="http://www.w3.org/2000/svg" p-id="1454" width="200" height="200"><path d="M469.333333 512a156.728889 156.728889 0 0 1 2.844445-28.444444H142.222222a28.444444 28.444444 0 0 0 0 56.888888h329.955556a156.728889 156.728889 0 0 1-2.844445-28.444444zM881.777778 483.555556h-102.4a150.755556 150.755556 0 0 1 0 56.888888H881.777778a28.444444 28.444444 0 0 0 0-56.888888z" p-id="1455" fill="#555555"></path><path d="M625.777778 512m-142.222222 0a142.222222 142.222222 0 1 0 284.444444 0 142.222222 142.222222 0 1 0-284.444444 0Z" p-id="1456" fill="#555555"></path></svg>