<svg t="1678174141177" class="icon" viewBox="0 0 1024 1024" version="1.1" xmlns="http://www.w3.org/2000/svg" p-id="8900" width="200" height="200"><path d="M512 962.56c249.856 0 450.56-200.704 450.56-450.56S761.856 61.44 512 61.44 61.44 262.144 61.44 512s200.704 450.56 450.56 450.56z m0-53.248C292.864 909.312 114.688 731.136 114.688 512S292.864 114.688 512 114.688 909.312 292.864 909.312 512 731.136 909.312 512 909.312z" fill="#555555" p-id="8901"></path><path d="M856.064 512c0 14.336-12.288 26.624-26.624 26.624s-26.624-12.288-26.624-26.624c0-161.792-131.072-290.816-290.816-290.816-14.336 0-26.624-12.288-26.624-26.624s12.288-26.624 26.624-26.624c190.464 0 344.064 153.6 344.064 344.064zM167.936 512c0-14.336 12.288-26.624 26.624-26.624s26.624 12.288 26.624 26.624c0 161.792 131.072 290.816 290.816 290.816 14.336 0 26.624 12.288 26.624 26.624s-12.288 26.624-26.624 26.624c-190.464 0-344.064-153.6-344.064-344.064z" fill="#555555" p-id="8902"></path><path d="M194.56 485.376h636.928c18.432 0 26.624 8.192 26.624 26.624s-8.192 26.624-26.624 26.624H194.56c-18.432 0-26.624-8.192-26.624-26.624s8.192-26.624 26.624-26.624z" fill="#555555" p-id="8903"></path><path d="M405.504 512c0 59.392 47.104 106.496 106.496 106.496s106.496-47.104 106.496-106.496-47.104-106.496-106.496-106.496-106.496 47.104-106.496 106.496z" fill="#555555" p-id="8904"></path></svg>