<?xml version="1.0" standalone="no"?><!DOCTYPE svg PUBLIC "-//W3C//DTD SVG 1.1//EN" "http://www.w3.org/Graphics/SVG/1.1/DTD/svg11.dtd"><svg t="1682567676473" class="icon" viewBox="0 0 1024 1024" version="1.1" xmlns="http://www.w3.org/2000/svg" p-id="2701" xmlns:xlink="http://www.w3.org/1999/xlink" width="200" height="200"><path d="M895.969 336.015l0 575.953c0 26.497-21.498 47.995-47.998 47.995L176.028 959.963c-26.498 0-47.996-21.498-47.996-47.995L128.032 112.033c0-26.498 21.499-47.996 47.996-47.996L623.99 64.037c26.498 0 63.494 15.499 81.994 33.997l155.986 155.987C880.469 272.52 895.969 309.517 895.969 336.015zM831.973 384.011 623.99 384.011c-26.498 0-47.996-21.499-47.996-47.996L575.994 128.032 192.026 128.032l0 767.936 639.946 0L831.972 384.011zM639.99 320.016l187.984 0c-3-8.5-7.5-16.999-11-20.499L660.488 143.03c-3.5-3.5-12-7.999-20.498-10.999L639.99 320.016z" p-id="2702"></path><path d="M569.09 800l-56.717-88.062L455.656 800 319.833 800l125.375-192.54L319.833 415.667 454.91 415.667l57.463 88.061 56.717-88.061 135.076 0L580.285 607.46 704.166 800 569.09 800z" p-id="2703"></path></svg>