<svg class="icon" viewBox="0 0 1025 1024" version="1.1" xmlns="http://www.w3.org/2000/svg" p-id="34100" width="32" height="32"><path d="M1024 627.2c-12.8-70.4-57.6-131.2-195.2-185.6-48-22.4-99.2-38.4-115.2-73.6-6.4-22.4-6.4-32-3.2-44.8 9.6-41.6 57.6-54.4 99.2-41.6 25.6 6.4 48 25.6 64 57.6 67.2-44.8 67.2-44.8 112-73.6-16-25.6-25.6-38.4-38.4-51.2-41.6-44.8-96-67.2-182.4-67.2l-44.8 6.4c-44.8 9.6-86.4 35.2-112 64-73.6 83.2-51.2 227.2 35.2 288 89.6 67.2 217.6 80 233.6 140.8 16 76.8-57.6 99.2-128 89.6-51.2-12.8-80-38.4-112-86.4l-118.4 67.2c12.8 32 28.8 44.8 51.2 70.4 112 112 395.2 108.8 446.4-64 3.2-6.4 16-44.8 6.4-105.6-1.6 6.4 1.6 9.6 1.6 9.6zM440 158.4h-144v376c0 80 3.2 153.6-9.6 176-22.4 44.8-76.8 38.4-102.4 32C156.8 729.6 144 713.6 128 688c-3.2-9.6-6.4-16-6.4-16L3.2 745.6c19.2 41.6 48 76.8 86.4 99.2 54.4 32 128 44.8 208 25.6 51.2-16 92.8-44.8 118.4-89.6 32-60.8 25.6-134.4 25.6-217.6V161.6c-1.6 0-1.6-3.2-1.6-3.2z" fill="#707070"></path></svg>