<?xml version="1.0" standalone="no"?><!DOCTYPE svg PUBLIC "-//W3C//DTD SVG 1.1//EN" "http://www.w3.org/Graphics/SVG/1.1/DTD/svg11.dtd"><svg t="1663849830120" class="icon" viewBox="0 0 1024 1024" version="1.1" xmlns="http://www.w3.org/2000/svg" p-id="2843" xmlns:xlink="http://www.w3.org/1999/xlink" width="200" height="200"><path d="M192 789.333333a21.24 21.24 0 0 1-12.8-4.28 344.513333 344.513333 0 0 1-99.333333-118A341.246667 341.246667 0 0 1 384 170.666667h256q6.36 0 12.733333 0.233333l-49.153333-49.146667a21.333333 21.333333 0 0 1 30.173333-30.173333l85.333334 85.333333a21.333333 21.333333 0 0 1 0 30.173334l-85.333334 85.333333a21.333333 21.333333 0 0 1-30.173333-30.173333l48.666667-48.666667Q646.126667 213.333333 640 213.333333H384c-164.666667 0-298.666667 134-298.666667 298.666667 0 94.833333 43.546667 181.933333 119.48 238.966667A21.333333 21.333333 0 0 1 192 789.333333z m228.433333 143.06a21.333333 21.333333 0 0 0 0-30.173333l-49.153333-49.146667q6.366667 0.233333 12.733333 0.233334H640a341.46 341.46 0 0 0 304.146667-496.42 344.513333 344.513333 0 0 0-99.333334-118 21.333333 21.333333 0 1 0-25.626666 34.113333C895.12 330.066667 938.666667 417.166667 938.666667 512c0 164.666667-134 298.666667-298.666667 298.666667H384q-6.12 0-12.246667-0.246667l48.666667-48.666667a21.333333 21.333333 0 0 0-30.173333-30.173333l-85.333334 85.333333a21.333333 21.333333 0 0 0 0 30.173334l85.333334 85.333333a21.333333 21.333333 0 0 0 30.173333 0zM768 512c0-70.58-57.42-128-128-128-33.546667 0-70.666667 13.38-99.246667 35.78a146.466667 146.466667 0 0 0-28.753333 29.6 146.466667 146.466667 0 0 0-28.753333-29.6C454.666667 397.38 417.546667 384 384 384c-70.58 0-128 57.42-128 128s57.42 128 128 128c33.546667 0 70.666667-13.38 99.246667-35.78a146.466667 146.466667 0 0 0 28.753333-29.6 146.466667 146.466667 0 0 0 28.753333 29.6C569.333333 626.62 606.453333 640 640 640c70.58 0 128-57.42 128-128z m-42.666667 0a85.426667 85.426667 0 0 1-85.333333 85.333333c-48 0-106.666667-39.373333-106.666667-85.333333s58.666667-85.333333 106.666667-85.333333a85.426667 85.426667 0 0 1 85.333333 85.333333z m-234.666666 0c0 45.96-58.666667 85.333333-106.666667 85.333333a85.333333 85.333333 0 0 1 0-170.666666c48 0 106.666667 39.373333 106.666667 85.333333z" fill="#555555" p-id="2844"></path></svg>