<?xml version="1.0" standalone="no"?><!DOCTYPE svg PUBLIC "-//W3C//DTD SVG 1.1//EN" "http://www.w3.org/Graphics/SVG/1.1/DTD/svg11.dtd"><svg t="1664421423523" class="icon" viewBox="0 0 1024 1024" version="1.1" xmlns="http://www.w3.org/2000/svg" p-id="1907" xmlns:xlink="http://www.w3.org/1999/xlink" width="200" height="200"><path d="M132.608 204.288m-66.56 0a66.56 66.56 0 1 0 133.12 0 66.56 66.56 0 1 0-133.12 0Z" p-id="1908" fill="#555555"></path><path d="M962.01728 158.80192l-680.68352 0.3584-0.04096 84.44928 680.7552-0.3584-0.03072-84.44928z" p-id="1909" fill="#555555"></path><path d="M132.608 512m-66.56 0a66.56 66.56 0 1 0 133.12 0 66.56 66.56 0 1 0-133.12 0Z" p-id="1910" fill="#555555"></path><path d="M281.33376 466.87232l-0.04096 84.44928 680.7552-0.3584-0.03072-84.44928-680.68352 0.3584z" p-id="1911" fill="#555555"></path><path d="M132.608 819.712m-66.56 0a66.56 66.56 0 1 0 133.12 0 66.56 66.56 0 1 0-133.12 0Z" p-id="1912" fill="#555555"></path><path d="M281.33376 775.59808l-0.04096 84.44928 680.7552-0.3584-0.03072-84.44928-680.68352 0.3584z" p-id="1913" fill="#555555"></path></svg>