<?xml version="1.0" standalone="no"?><!DOCTYPE svg PUBLIC "-//W3C//DTD SVG 1.1//EN" "http://www.w3.org/Graphics/SVG/1.1/DTD/svg11.dtd"><svg t="1628598359026" class="icon" viewBox="0 0 1024 1024" version="1.1" xmlns="http://www.w3.org/2000/svg" p-id="2382" xmlns:xlink="http://www.w3.org/1999/xlink" width="200" height="200"><defs><style type="text/css"></style></defs><path d="M512 0C229.376 0 0 229.376 0 512s229.376 512 512 512 512-229.376 512-512S794.624 0 512 0z m0 951.296c-242.176 0-439.296-197.12-439.296-439.296S269.824 72.704 512 72.704s439.296 197.12 439.296 439.296-197.12 439.296-439.296 439.296z" p-id="2383" fill="#555555"></path><path d="M512 592.896c-17.408 0-31.744-13.312-33.28-30.72l-19.456-240.64c-1.536-19.456 13.824-35.84 33.28-35.84h38.4c19.456 0 34.816 16.384 33.28 35.84l-19.456 240.64c-1.024 17.408-15.36 30.72-32.768 30.72z" p-id="2384" fill="#555555"></path><path d="M512 683.008m-55.296 0a55.296 55.296 0 1 0 110.592 0 55.296 55.296 0 1 0-110.592 0Z" p-id="2385" fill="#555555"></path></svg>