<svg t="1720592261976" class="icon" viewBox="0 0 1027 1024" version="1.1" xmlns="http://www.w3.org/2000/svg" p-id="5203" width="200" height="200"><path d="M274.134189 526.199412l38.252873-114.758621 38.252874 114.758621H274.134189zM643.934777 462.387597q-9.546111 19.092221-38.252874 19.126437h-57.37931v-82.80139h44.480085c19.126437 0 31.8888 0 38.252874 6.364073a48.722801 48.722801 0 0 1 12.762363 31.8888c6.364074 12.762363 0 19.126437 0 25.524726z" fill="#2c2c2c" p-id="5204"></path><path d="M956.321839 711.133921v-172.172146h71.065491v-63.743384H956.321839V303.08046h71.065491V239.337076H956.321839V181.820904a100.696071 100.696071 0 0 0-101.996258-102.030474h-82.869821V0h-63.777599v86.325581h-165.773857V0h-63.743384v86.325581H306.022989V0H242.279604v86.325581H165.773857c-57.37931 0-102.030473 44.480086-102.030473 95.803262V239.508153H0v63.743384h63.743384v172.137931H0v63.743384h63.743384v172.001069H0v63.743385h63.743384v57.37931a100.696071 100.696071 0 0 0 102.030473 101.996258h82.869821v89.747126H312.387062v-89.747126h172.172147v89.747126h63.743384v-89.747126h172.137931v89.747126h63.743384v-89.747126h82.904036c57.37931 0 91.731623-44.480086 91.731623-101.996258v-57.37931H1026.463512v-63.743385z m-573.793103-76.505747l-12.762363-57.37931H261.406041l-19.126437 57.37931H178.502005L280.566693 347.697407h70.141674l95.597968 286.930767z m306.022988-140.283346a90.807805 90.807805 0 0 1-76.505747 38.252873h-70.141673v102.030473h-57.345095v-286.930767h133.885057c25.490511 0 50.981021 6.398289 63.743384 19.126437 19.126437 19.126437 25.490511 44.651163 25.490511 70.141673q0 28.843625-19.126437 57.379311z m114.758621 140.283346H745.896819v-286.930767h57.37931z" fill="#2c2c2c" p-id="5205"></path></svg>